<svg xmlns="http://www.w3.org/2000/svg" width="64" height="64"><path fill="#c4939c" d="M25.268 29.874s-1.459 5.096-1.151 8.846c.553 6.711 2.085 9.264 5.873 15.022-1.362-5.448-1.505-10.742-.592-12.834.912 1.526 3.585 5.12 6.157 6.953 2.093 1.492 3.052.468 2.989-1.108-.104-2.612-1.817-6.402-2.477-10.282s2.135-9.163 3.136-11.249-.926-5.618-.926-5.618 4.326 4.601 8.006 3.719 3.526-5.453 3.526-5.453c.544 1.341.83 2.692.731 3.592 1.872-.85 2.303-3.46 2.303-3.46.649 3.593-2.704 8.945-2.845 10.171s.735 2.4 1.505 4.793 2.174 6.548 1.151 11.765-1.339 8.313-.663 9.637 1.765 2.309-.921 3.759-6.054-.047-7.427-.497-1.806.485-3.722 1.066c-1.916.58-5.403.242-8.287-.221-4.016-.645-6.751-1.945-12.658-10.476S9.403 26.897 9.073 20.315C8.742 13.734 11.794 9.118 17 9c6.081-.137 7.151 4.271 7.635 8.09s.611 10.611.633 12.784"/><path fill="#fff8ee" d="M45.501 23.676c.004 1.422.762 4.095 1.727 4.024 1.714-.126 3.236-.835 3.236-.835l2.308-7.204z"/><path fill="#efd8be" d="M25.268 29.874s-1.459 5.096-1.151 8.846c.553 6.711 2.085 9.264 5.873 15.022-1.362-5.448-1.505-10.742-.592-12.834.912 1.526 3.985 5.52 6.557 7.353 2.093 1.492 3.052.468 2.989-1.108-.104-2.612-2.217-6.802-2.877-10.682s2.135-9.163 3.136-11.249-.926-5.618-.926-5.618 4.326 4.601 8.006 3.719 3.526-5.453 3.526-5.453c.544 1.341.83 2.692.731 3.592 1.872-.85 2.303-3.46 2.303-3.46.018-2.201-.444-6.127-3.931-6.094s-12.037.811-15.353 6.923c-1.735 3.198-4.198 2.802-4.198 2.802s-2.677 4.292-4.093 8.241"/><path fill="#fff8ee" d="M28.628 51.253a1.5 1.5 0 0 1-1.285-.723c-2.443-4.038-3.313-6.787-3.724-11.769-.332-4.028.512-7.093 1.175-9.048.895-2.634 1.254-3.283 1.918-4.388.197-.329.405-.674.659-1.134.242-.437.469-.818.676-1.166.773-1.295 1.133-1.947 1.085-2.967-.033-.705-.257-1.438-.494-2.213-.257-.84-.521-1.704-.547-2.577-.025-.815-.015-1.333.111-1.734.2-.638.773-1.096 1.441-1.052l.178-.003q.182 0 .395.021.141.012.29.013c1.402 0 2.455-.984 3.091-1.809.811-1.053 2.964-3.85 7.285-4.846a7.8 7.8 0 0 1 1.754-.204c2.328 0 3.996 1.102 4.783 1.758 1.848 1.541 2.603 3.276 2.683 3.469a1.5 1.5 0 1 1-2.771 1.149c-.004-.01-8.873.172-14.051 6.903-1.201 1.561-1.825 4.236-2.636 5.596-.212.355-.423.71-.647 1.115-.275.498-.5.872-.7 1.205-.559.929-.833 1.383-1.663 3.829-.578 1.701-1.312 4.365-1.026 7.837.408 4.959 1.348 7.235 3.3 10.461a1.5 1.5 0 0 1-1.28 2.277"/><path fill="#c4939c" d="M32.94 12.388s-1.67.662-2.82.706-2.671.544-1.966 2.776 2.202 4.324 1.377 5.451c1.225-1.521 3.409-8.933 3.409-8.933"/><circle cx="40.107" cy="11.908" r="1.807" fill="#c4939c"/><path fill="#8d6c9f" d="M35.02 24.971c-1.177 0-2.093-.283-2.731-.845-.581-.511-.892-1.229-.897-2.074-.015-2.055 1.187-4.216 3.57-6.423 1.72-1.591 2.148-2.129 2.084-3.356-.062-1.196.342-2.158 1.137-2.709.623-.43 1.735-.78 3.512-.008 2.013.876 4.874 1.331 4.902 1.335a1 1 0 1 1-.309 1.976c-.127-.02-3.14-.497-5.393-1.478-.831-.362-1.359-.332-1.573-.182-.201.14-.303.49-.278.961.12 2.296-1.135 3.457-2.723 4.928-1.955 1.809-2.94 3.471-2.93 4.941.002.352.118.499.219.587.353.311 1.188.42 2.231.293a1 1 0 1 1 .24 1.985 9 9 0 0 1-1.061.069"/><path fill="#c4939c" d="M45.071 12.528c.118-.975 4.521-1.794 5.315-1.324 1.508.894-.419 3.309-1.912 3.676-1.492.368-3.528-1.318-3.403-2.352"/><path fill="#8d6c9f" d="M48.031 15.933c-1.071 0-2.11-.565-2.797-1.173-.827-.732-1.248-1.589-1.156-2.353.104-.863.963-1.286 1.245-1.425 1.241-.613 4.449-1.306 5.573-.639.776.46 1.145 1.24 1.012 2.14-.208 1.402-1.73 3.007-3.194 3.368a2.8 2.8 0 0 1-.683.082m-1.882-3.139c.118.189.359.466.729.715.484.328 1.017.488 1.357.401.506-.125 1.189-.702 1.524-1.287.179-.312.181-.492.172-.522-.559-.174-2.959.246-3.782.693m-1.078-.266h.01z"/><path fill="#8d6c9f" d="M52.874 19.213a1 1 0 0 1-1-.975l-.006-.359c-.017-1.191-.036-2.673-1.337-4.302a1 1 0 1 1 1.562-1.248c1.729 2.164 1.756 4.186 1.774 5.523l.006.336a1 1 0 0 1-.975 1.024zM47.191 28.702c-.311 0-.732-.095-1.153-.485-.997-.925-1.533-3.23-1.537-4.538a1 1 0 0 1 .997-1.003h.003a1 1 0 0 1 1 .997c.003 1.131.5 2.613.835 3.014 1.438-.144 2.692-.722 2.705-.728a.999.999 0 1 1 .846 1.812c-.069.032-1.71.789-3.585.926a1 1 0 0 1-.111.005M36.789 16.257a1 1 0 0 1-.619-1.786c2.6-2.043 6.966-3.243 9.107-3.519a1 1 0 0 1 .256 1.984c-2.073.268-5.965 1.408-8.127 3.108a1 1 0 0 1-.617.213M29.236 22.917a1 1 0 0 1-.888-1.458c.703-1.367 1.201-2.805 1.729-4.328.854-2.466 1.738-5.017 3.563-7.286a1 1 0 1 1 1.558 1.253c-1.607 1.999-2.396 4.277-3.231 6.688-.527 1.522-1.073 3.096-1.842 4.589a.99.99 0 0 1-.889.542M17.779 38.475a1 1 0 0 1-.399-1.918l1.834-.798a1 1 0 1 1 .796 1.834l-1.834.798a1 1 0 0 1-.397.084M15.983 33.879a1.001 1.001 0 0 1-.329-1.945l1.888-.659a1 1 0 0 1 .658 1.889l-1.888.659a1 1 0 0 1-.329.056M14.522 29.168a1.001 1.001 0 0 1-.259-1.967l1.932-.52a1 1 0 1 1 .52 1.932l-1.932.52a1 1 0 0 1-.261.035M13.448 24.333a1 1 0 0 1-.166-1.986l1.972-.334a1 1 0 1 1 .334 1.971l-1.972.334a1 1 0 0 1-.168.015M15.09 19.416l-.086-.003-1.993-.17a1 1 0 0 1-.911-1.082.987.987 0 0 1 1.081-.912l1.993.17a1 1 0 0 1-.084 1.997"/><path fill="#8d6c9f" d="M37.179 60.004c-1.548 0-3.453-.181-5.703-.542-4.496-.722-7.486-2.466-13.322-10.895-5.769-8.333-9.724-21.126-10.08-28.202-.203-4.053.822-7.508 2.889-9.729C12.515 8.965 14.595 8.054 16.978 8c7.543-.171 8.273 6 8.649 8.964.292 2.306.453 5.648.541 8.364.116-.213.241-.436.385-.692l.382-.686c.252-.455.488-.852.703-1.211.738-1.238 1.037-1.775.995-2.654-.026-.574-.339-1.23-.67-1.925-.413-.867-.84-1.764-.871-2.775-.033-1.125.222-1.949.781-2.522.496-.508 1.191-.765 2.068-.765h.053c1.189 0 2.387-.633 3.207-1.698.866-1.125 3.167-4.112 7.569-5.128 3.309-.763 5.788.772 6.97 1.757 1.658 1.383 2.468 2.887 2.739 3.47a1 1 0 0 1-1.812.845c-.168-.359-.821-1.622-2.208-2.778-1.095-.915-2.889-1.891-5.239-1.346-3.704.854-5.617 3.339-6.435 4.4-1.196 1.553-2.985 2.478-4.791 2.478h-.054c-.222 0-.506.029-.637.163-.15.154-.229.542-.212 1.064.018.591.338 1.264.677 1.976.401.843.816 1.715.862 2.69.071 1.516-.523 2.512-1.275 3.773-.205.343-.432.722-.671 1.155l-.387.694c-.727 1.297-.925 1.65-2.08 4.581-.138.499-1.379 5.103-1.104 8.445.372 4.52 1.158 7.014 2.944 10.15-.417-3.499-.289-6.549.422-8.181.15-.343.479-.574.854-.598.356-.024.729.163.922.485.876 1.465 3.887 5.247 6.278 6.952.794.565 1.193.562 1.248.531.048-.026.183-.27.162-.784-.049-1.223-.64-2.983-1.266-4.846-.596-1.772-1.271-3.781-1.598-5.708-.664-3.898 1.785-8.911 2.963-11.319l.258-.531c.61-1.273-.56-3.518-1.018-4.204a1 1 0 0 1 1.512-1.289c1.144 1.059 4.672 3.676 7.254 3.054 2.849-.683 2.884-4.085 2.884-4.23a1 1 0 0 1 1.927-.379q.318.785.494 1.519a5.2 5.2 0 0 0 .502-1.424c.083-.478.497-.83.982-.832h.004c.483 0 .898.344.984.82.511 2.826-1.076 6.371-2.126 8.717-.301.673-.677 1.511-.711 1.748-.059.508.199 1.125.59 2.061.256.614.574 1.379.874 2.31l.057.176c.813 2.522 2.172 6.744 1.124 12.087-.305 1.555-.662 2.815-.949 3.829-.69 2.435-.976 3.442.13 5.049l.109.159c.503.725 1.129 1.627.868 2.718-.209.873-.923 1.613-2.247 2.329-2.784 1.5-5.987.361-7.709-.251q-.285-.102-.505-.176c-.441-.146-.6-.073-1.282.287-.457.24-1.026.54-1.839.786-.772.233-1.785.35-3.03.35M17.282 9.997l-.26.003c-1.856.042-3.402.714-4.597 1.999-1.694 1.822-2.53 4.759-2.354 8.267.342 6.801 4.158 19.121 9.727 27.164 5.909 8.534 8.474 9.493 11.994 10.059 3.654.587 6.438.675 7.839.251.631-.191 1.086-.431 1.488-.642.774-.408 1.576-.831 2.836-.417q.24.08.552.191c1.43.508 4.09 1.454 6.089.376 1.099-.594 1.235-.965 1.252-1.034.053-.221-.29-.716-.566-1.114l-.114-.166c-1.638-2.381-1.121-4.204-.405-6.728.291-1.029.621-2.194.91-3.668.949-4.837-.312-8.75-1.064-11.089l-.058-.177c-.273-.851-.562-1.542-.816-2.152-.474-1.136-.848-2.034-.729-3.062.057-.496.338-1.142.872-2.334.451-1.008 1.012-2.261 1.433-3.536a4 4 0 0 1-.356.185 1 1 0 0 1-1.213-.311c-.683 1.008-1.713 1.872-3.223 2.234-2.124.509-4.395-.376-6.136-1.389.164.905.144 1.872-.276 2.747l-.264.543c-1.086 2.221-3.344 6.843-2.789 10.105.302 1.773.923 3.621 1.522 5.407.673 2.003 1.309 3.895 1.368 5.404.049 1.225-.392 2.181-1.209 2.623-.632.342-1.726.503-3.359-.661-1.91-1.362-4.049-3.754-5.487-5.627-.21 2.337.057 5.985 1.073 10.052a.998.998 0 0 1-1.804.792c-3.87-5.882-5.463-8.546-6.035-15.49-.294-3.574.904-8.174 1.146-9.06-.016-1.351-.122-8.56-.624-12.527-.567-4.449-1.837-7.218-6.363-7.218"/></svg>