<svg xmlns="http://www.w3.org/2000/svg" width="64" height="64"><linearGradient id="SVGID_1_" x1="14" x2="14" y1="16.447" y2="24.493" gradientUnits="userSpaceOnUse"><stop offset="0" stop-color="#8ab4ff"/><stop offset="1" stop-color="#e492ff"/></linearGradient><path fill="url('#SVGID_1_')" d="m18.9 17.8-3.5-2.5c-1.6-.7-3.5-.5-4.8.7-1 1-1.6 2.3-1.6 3.9v3.6l10 7.4V18.5z"/><linearGradient id="SVGID_2_" x1="50" x2="50" y1="16.447" y2="24.493" gradientUnits="userSpaceOnUse"><stop offset="0" stop-color="#8ab4ff"/><stop offset="1" stop-color="#e492ff"/></linearGradient><path fill="url('#SVGID_2_')" d="M55 23.5v-3.6c0-1.5-.6-2.8-1.6-3.8-1.5-1.5-3.9-1.5-5.5-.3l-2.7 2-.2.7v12.4z"/><linearGradient id="SVGID_3_" x1="32" x2="32" y1="12.957" y2="49.383" gradientUnits="userSpaceOnUse"><stop offset="0" stop-color="#1A6DFF"/><stop offset="1" stop-color="#C822FF"/></linearGradient><path fill="url('#SVGID_3_')" d="M54.1 15.3c-1.8-1.8-4.7-1.9-6.8-.4l-2.7 2L32 26.3 19.5 17l-2.7-2c-2.1-1.6-5-1.4-6.8.4-1.3 1.2-2 2.8-2 4.5v26.7c0 1.9 1.6 3.5 3.5 3.5H19c.6 0 1-.4 1-1V32.9l11.4 8.4c.2.1.4.2.6.2s.4-.1.6-.2L44 32.9v16.2c0 .6.4 1 1 1h7.5c2.1 0 3.5-1.3 3.5-3.1V19.9c0-1.7-.7-3.3-1.9-4.6M10 19.9c0-1.2.5-2.3 1.3-3.1.6-.6 1.4-.9 2.2-.9.7 0 1.4.2 2.1.7l2.5 1.8v10.5L10 23zm1.5 28.2c-.8 0-1.5-.7-1.5-1.5V25.5l8 5.9V40h-3v2h3v2h-5v2h5v2.1zM44 30.4l-12 8.9-12-8.9V19.9l11.4 8.4c.2.1.4.2.6.2s.4-.1.6-.2L44 19.9zm4.5-13.8c1.3-1 3.1-.9 4.3.2.8.8 1.3 1.9 1.3 3.1V23l-8 5.9V18.4zm4 31.5H46V31.4l8-5.9V40h-3v2h3v2h-5v2h5v1c0 1-1 1.1-1.5 1.1"/></svg>