<svg xmlns="http://www.w3.org/2000/svg" xml:space="preserve" id="svg1" width="239.406" height="300" version="1.1" viewBox="0 0 63.343 79.375"><defs id="defs1"><clipPath id="clipPath3-6" clipPathUnits="userSpaceOnUse"><path id="path3-4" d="M0 841.89h595.276V0H0Z" transform="translate(-38.333 -487.598)"/></clipPath><clipPath id="clipPath5-0" clipPathUnits="userSpaceOnUse"><path id="path5-4" d="M0 841.89h595.276V0H0Z" transform="translate(-43.02 -482.098)"/></clipPath><clipPath id="clipPath7-1" clipPathUnits="userSpaceOnUse"><path id="path7-4" d="M0 841.89h595.276V0H0Z" transform="translate(-43.02 -482.098)"/></clipPath><clipPath id="clipPath9-3" clipPathUnits="userSpaceOnUse"><path id="path9-6" d="M0 841.89h595.276V0H0Z" transform="translate(-118.809 -415.493)"/></clipPath><clipPath id="clipPath11-7" clipPathUnits="userSpaceOnUse"><path id="path11-1" d="M0 841.89h595.276V0H0Z" transform="translate(-116.82 -410.593)"/></clipPath><clipPath id="clipPath13-0" clipPathUnits="userSpaceOnUse"><path id="path13-8" d="M0 841.89h595.276V0H0Z" transform="translate(-114.926 -407.357)"/></clipPath><clipPath id="clipPath15-3" clipPathUnits="userSpaceOnUse"><path id="path15-4" d="M0 841.89h595.276V0H0Z" transform="translate(-110.35 -404.352)"/></clipPath><clipPath id="clipPath17-8" clipPathUnits="userSpaceOnUse"><path id="path17-3" d="M0 841.89h595.276V0H0Z" transform="translate(-106.928 -403.52)"/></clipPath><clipPath id="clipPath19-7" clipPathUnits="userSpaceOnUse"><path id="path19-4" d="M0 841.89h595.276V0H0Z" transform="translate(-104.154 -397.649)"/></clipPath><clipPath id="clipPath21-1" clipPathUnits="userSpaceOnUse"><path id="path21-5" d="M0 841.89h595.276V0H0Z" transform="translate(-100.503 -395.846)"/></clipPath><clipPath id="clipPath23-6" clipPathUnits="userSpaceOnUse"><path id="path23-7" d="M0 841.89h595.276V0H0Z" transform="translate(-96.943 -394.598)"/></clipPath><clipPath id="clipPath25-9" clipPathUnits="userSpaceOnUse"><path id="path25-6" d="M0 841.89h595.276V0H0Z" transform="translate(-91.257 -393.072)"/></clipPath><clipPath id="clipPath27-6" clipPathUnits="userSpaceOnUse"><path id="path27-9" d="M0 841.89h595.276V0H0Z" transform="translate(-89.177 -398.62)"/></clipPath><clipPath id="clipPath29-6" clipPathUnits="userSpaceOnUse"><path id="path29-7" d="M0 841.89h595.276V0H0Z" transform="translate(-72.588 -393.358)"/></clipPath><clipPath id="clipPath31-3" clipPathUnits="userSpaceOnUse"><path id="path31-7" d="M0 841.89h595.276V0H0Z" transform="translate(-70.833 -396.598)"/></clipPath><clipPath id="clipPath33-7" clipPathUnits="userSpaceOnUse"><path id="path33-1" d="M0 841.89h595.276V0H0Z" transform="translate(-62.96 -397.898)"/></clipPath><clipPath id="clipPath35-0" clipPathUnits="userSpaceOnUse"><path id="path35-6" d="M0 841.89h595.276V0H0Z" transform="translate(-63.707 -400.637)"/></clipPath><clipPath id="clipPath37-2" clipPathUnits="userSpaceOnUse"><path id="path37-2" d="M0 841.89h595.276V0H0Z" transform="translate(-54.645 -404.315)"/></clipPath><clipPath id="clipPath39-8" clipPathUnits="userSpaceOnUse"><path id="path39-4" d="M0 841.89h595.276V0H0Z" transform="translate(-58.26 -408.775)"/></clipPath><clipPath id="clipPath41-2" clipPathUnits="userSpaceOnUse"><path id="path41-9" d="M0 841.89h595.276V0H0Z" transform="translate(-49.14 -411.974)"/></clipPath><clipPath id="clipPath43-1" clipPathUnits="userSpaceOnUse"><path id="path43-9" d="M0 841.89h595.276V0H0Z" transform="translate(-47.08 -418.468)"/></clipPath><clipPath id="clipPath45-4" clipPathUnits="userSpaceOnUse"><path id="path45-7" d="M0 841.89h595.276V0H0Z" transform="translate(-71.425 -476.607)"/></clipPath><clipPath id="clipPath47-2" clipPathUnits="userSpaceOnUse"><path id="path47-3" d="M0 841.89h595.276V0H0Z" transform="translate(-76.279 -469.349)"/></clipPath><clipPath id="clipPath49-1" clipPathUnits="userSpaceOnUse"><path id="path49-7" d="M0 841.89h595.276V0H0Z" transform="translate(-95.232 -436.389)"/></clipPath></defs><g id="layer1" transform="translate(-12.913 -12.516)"><g id="group-MC0" transform="matrix(.53076 0 0 .53076 -14.209 -231.037)"><path id="path2" d="M0 0c19.442-6.983 30.318-3.271 43.401 10.134C56.668-2.994 72.167-6.167 89.354-.167L89.5-59c0-57.667-88.953-56.93-89.508-.439z" clip-path="url('#clipPath3-6')" style="fill:#08324d;fill-opacity:1;fill-rule:nonzero;stroke:none" transform="matrix(1.33333 0 0 -1.33333 51.111 472.39)"/><path id="path4" d="M0 0c15.014-4.389 27.156-2.996 38.852 8.978C50.733-2.764 66.146-4.5 80 0l.041-52.968C80.041-105 .483-103.68.02-53.246Z" clip-path="url('#clipPath5-0')" style="fill:#fff;fill-opacity:1;fill-rule:nonzero;stroke:none" transform="matrix(1.33333 0 0 -1.33333 57.361 479.723)"/><path id="path6" d="m0 0 38.646-59.021L80 0l.041-52.968c0-52.199-80.021-51.865-80.021-.278z" clip-path="url('#clipPath7-1')" style="fill:#859995;fill-opacity:1;fill-rule:nonzero;stroke:none" transform="matrix(1.33333 0 0 -1.33333 57.361 479.723)"/><path id="path8" d="m0 0-2.08.509-3.837-.555.277 1.295 2.543.185-2.08 1.479.277 1.248 3.144-2.451 2.08-.508Z" clip-path="url('#clipPath9-3')" style="fill:#fff;fill-opacity:1;fill-rule:nonzero;stroke:none" transform="matrix(1.33333 0 0 -1.33333 158.411 568.53)"/><path id="path10" d="m0 0-4.299 2.08L-4.9.924l-.831.417 1.663 3.513.879-.462-.601-1.156L.555 1.109Z" clip-path="url('#clipPath11-7')" style="fill:#fff;fill-opacity:1;fill-rule:nonzero;stroke:none" transform="matrix(1.33333 0 0 -1.33333 155.761 575.063)"/><path id="path12" d="m0 0-4.901 3.051.601.97L.6.971Z" clip-path="url('#clipPath13-0')" style="fill:#fff;fill-opacity:1;fill-rule:nonzero;stroke:none" transform="matrix(1.33333 0 0 -1.33333 153.235 579.377)"/><path id="path14" d="m0 0 .786.971.138-.139c.232-.139.463-.231.555-.231.185-.046.324.046.462.231.093.139.185.324.139.462a.48.48 0 0 1-.231.416c-.185.139-.601.139-1.202-.046l-.092-.046-.694-.231c-.185-.047-.369-.093-.462-.093-.277-.046-.508-.046-.647-.046-.231.092-.416.231-.601.37a1.28 1.28 0 0 0-.601 1.063c-.047.463.092.879.416 1.34.416.417.786.694 1.156.787.37 0 .832-.093 1.201-.416l.139-.093-.739-.924c-.231.138-.416.277-.601.277-.139 0-.323-.092-.463-.231-.092-.139-.138-.277-.092-.416a.55.55 0 0 1 .232-.417c.23-.184.739-.138 1.432.139.185.046.37.139.416.139.416.139.832.231 1.064.185.23 0 .554-.093.739-.278.462-.323.694-.739.739-1.155 0-.416-.184-.925-.6-1.433-.37-.462-.74-.74-1.156-.786-.37-.093-.786.092-1.202.416 0 0-.092.046-.092.092C.139-.046.046-.046 0 0" clip-path="url('#clipPath15-3')" style="fill:#fff;fill-opacity:1;fill-rule:nonzero;stroke:none" transform="matrix(1.33333 0 0 -1.33333 147.132 583.384)"/><path id="path16" d="m0 0-.231-.185L-1.248.971l.231.185c.231.231.462.323.647.369.139-.046.324-.185.509-.369C.324.924.416.739.37.555.37.416.231.185 0 0m3.375-.74c-.093.139-.278.278-.462.509l-.093.092c0 .046-.092.093-.092.093-.324.369-.602.601-.832.647-.139.046-.417 0-.74-.185.184.231.231.508.231.74-.047.277-.231.554-.509.924-.37.37-.739.601-1.109.601-.277 0-.74-.231-1.248-.647L-2.774.878l3.791-4.345.879.785L.37-.878l.37.277a.84.84 0 0 0 .508.231c.139-.047.37-.139.555-.37 0-.046.138-.185.277-.323.324-.416.648-.694.786-.833l.971.833c-.139.092-.324.185-.462.323" clip-path="url('#clipPath17-8')" style="fill:#fff;fill-opacity:1;fill-rule:nonzero;stroke:none" transform="matrix(1.33333 0 0 -1.33333 142.57 584.493)"/><path id="path18" d="m0 0-3.004 4.9L-.37 6.518l.463-.74-1.572-.97.694-1.202 1.478.878.464-.739-1.48-.879.878-1.479 1.711 1.017.416-.786Z" clip-path="url('#clipPath19-7')" style="fill:#fff;fill-opacity:1;fill-rule:nonzero;stroke:none" transform="matrix(1.33333 0 0 -1.33333 138.872 592.321)"/><path id="path20" d="m0 0-3.837 4.577 1.109.554 1.849-2.496c.324-.369.601-.647.693-.878.186-.278.371-.463.463-.647-.185.324-.277.647-.37.971-.093.277-.138.601-.185.878l-.74 3.005 1.11.508L1.294.601z" clip-path="url('#clipPath21-1')" style="fill:#fff;fill-opacity:1;fill-rule:nonzero;stroke:none" transform="matrix(1.33333 0 0 -1.33333 134.004 594.726)"/><path id="path22" d="m0 0-1.756 5.455 1.109.37L1.156.324z" clip-path="url('#clipPath23-6')" style="fill:#fff;fill-opacity:1;fill-rule:nonzero;stroke:none" transform="matrix(1.33333 0 0 -1.33333 129.257 596.39)"/><path id="path24" d="m0 0-1.34 5.64 1.617.37 1.711-2.728c.231-.277.416-.601.555-.925.185-.277.37-.6.508-.878-.046.231-.185.509-.231.74-.092.277-.185.554-.231.878l-.832 3.236 1.109.231L4.114.971 2.589.601.786 3.421a5 5 0 0 0-.462.74c-.185.323-.37.647-.555 1.017.046-.324.185-.648.231-.925.046-.231.185-.508.185-.647L1.063.277Z" clip-path="url('#clipPath25-9')" style="fill:#fff;fill-opacity:1;fill-rule:nonzero;stroke:none" transform="matrix(1.33333 0 0 -1.33333 121.676 598.424)"/><path id="path26" d="m0 0 .277-3.606C.37-4.438.231-4.993 0-5.362c-.324-.37-.786-.601-1.479-.648-.693-.046-1.202.047-1.526.37-.277.324-.509.832-.555 1.526l-.323 3.79 1.109.093.324-3.467c.046-.648.138-1.11.278-1.202.138-.185.369-.231.646-.231.232.046.463.138.555.323.046.231.093.601.046 1.248l-.277 3.468z" clip-path="url('#clipPath27-6')" style="fill:#fff;fill-opacity:1;fill-rule:nonzero;stroke:none" transform="matrix(1.33333 0 0 -1.33333 118.902 591.027)"/><path id="path28" d="m0 0 .601 5.778 1.803-.231.416-3.606c.046-.092.092-.277.092-.462-.046-.185 0-.462 0-.739 0 .184.093.369.093.601.046.184.139.415.139.6l1.155 3.421 1.896-.184-.601-5.733-1.11.093.463 3.929c0 .277.045.555.092.786 0 .231.093.416.138.601L3.375-.324l-1.11.093-.693 5.501c-.046-.324-.046-.832-.093-1.433l.047-.046-.37-3.884Z" clip-path="url('#clipPath29-6')" style="fill:#fff;fill-opacity:1;fill-rule:nonzero;stroke:none" transform="matrix(1.33333 0 0 -1.33333 96.783 598.042)"/><path id="path30" d="m0 0-1.097.458L.405 2.51Zm.133 3.591-3.747-4.64 1.136-.511.739 1.098 1.485-.662-.161-1.285 1.182-.518.767 5.917z" clip-path="url('#clipPath31-3')" style="fill:#fff;fill-opacity:1;fill-rule:nonzero;stroke:none" transform="matrix(1.33333 0 0 -1.33333 94.444 593.723)"/><path id="path32" d="m0 0 2.943 4.981 1.374-.813-.61-3.134a9 9 0 0 0-.21-1.091c-.094-.313-.149-.678-.243-.992.08.222.213.483.339.697.132.261.265.522.404.828l1.648 2.885.944-.562-2.898-4.988-1.367.859.585 3.278c.08.222.128.542.176.862.093.313.155.725.308 1.122-.185-.299-.324-.605-.457-.866-.125-.215-.258-.476-.279-.613L.989-.569Z" clip-path="url('#clipPath33-7')" style="fill:#fff;fill-opacity:1;fill-rule:nonzero;stroke:none" transform="matrix(1.33333 0 0 -1.33333 83.947 591.99)"/><path id="path34" d="m0 0-1.757-2.359c-.398.185-.709.313-.877.472-.214.164-.433.282-.652.4-.255.215-.51.43-.632.583-.163.205-.326.41-.305.593-.101.338-.054.751.115 1.011.18.352.477.923.974 1.611.334.474.651.81.866 1.064.256.204.507.361.7.433.245.111.572.12.843.043.27-.077.581-.205.877-.472.519-.338.799-.742.845-1.166.085-.475-.059-.924-.393-1.398L.553.774l-.988.718.051.041c.215.255.339.519.313.709.021.183-.096.383-.264.541a.57.57 0 0 1-.745-.008c-.205-.163-.63-.627-1.127-1.314-.599-.77-.891-1.294-.963-1.519-.031-.276.126-.526.426-.746.087-.057.128-.108.22-.118.035-.098.219-.119.306-.175l.768 1.03-.515.384.548.728z" clip-path="url('#clipPath35-0')" style="fill:#fff;fill-opacity:1;fill-rule:nonzero;stroke:none" transform="matrix(1.33333 0 0 -1.33333 84.942 588.337)"/><path id="path36" d="m0 0 4.186 3.967L5.327 2.79 3.846-.087a4.4 4.4 0 0 0-.506-.928q-.253-.464-.507-.926c.161.216.32.433.522.6.206.213.416.471.623.684l2.403 2.324.759-.814-4.185-3.967-1.097 1.173 1.496 3.015c.108.175.231.489.396.752.168.308.341.663.602.964-.256-.254-.462-.467-.668-.68-.202-.166-.361-.383-.513-.508L.758-.815Z" clip-path="url('#clipPath37-2')" style="fill:#fff;fill-opacity:1;fill-rule:nonzero;stroke:none" transform="matrix(1.33333 0 0 -1.33333 72.86 583.434)"/><path id="path38" d="m0 0-2.866-2.219q-.97-.762-1.665-.694c-.416 0-.878.324-1.294.879-.416.508-.601 1.017-.508 1.479.092.416.37.925.924 1.294l3.005 2.358.74-.971L-4.438 0c-.509-.37-.786-.693-.878-.878-.047-.185 0-.416.184-.648.185-.231.416-.323.555-.323.278.046.648.277 1.11.647L-.74.924z" clip-path="url('#clipPath39-8')" style="fill:#fff;fill-opacity:1;fill-rule:nonzero;stroke:none" transform="matrix(1.33333 0 0 -1.33333 77.68 577.487)"/><path id="path40" d="m0 0 1.942.924 2.589 2.913.554-1.156L3.329.878l2.542.278.555-1.202L2.45-.139l-1.895-.97Z" clip-path="url('#clipPath41-2')" style="fill:#fff;fill-opacity:1;fill-rule:nonzero;stroke:none" transform="matrix(1.33333 0 0 -1.33333 65.52 573.222)"/><path id="path42" d="m0 0 5.594 1.387.277-1.11-2.45-.647 2.82-.832.277-1.248-3.005.971L.925-3.837.601-2.45 2.958-.508.277-1.156Z" clip-path="url('#clipPath43-1')" style="fill:#fff;fill-opacity:1;fill-rule:nonzero;stroke:none" transform="matrix(1.33333 0 0 -1.33333 62.772 564.563)"/><path id="path44" d="M0 0h21.496v-7.258h3.606v-4.253h-3.513v-4.947h3.652v-4.16h-3.56v-6.934h-4.623v22.883H0Z" clip-path="url('#clipPath45-4')" style="fill:#08324d;fill-opacity:1;fill-rule:nonzero;stroke:none" transform="matrix(1.33333 0 0 -1.33333 95.233 487.044)"/><path id="path46" d="M0 0v-23.16h16.966v-4.946H-4.715V0Z" clip-path="url('#clipPath47-2')" style="fill:#08324d;fill-opacity:1;fill-rule:nonzero;stroke:none" transform="matrix(1.33333 0 0 -1.33333 101.705 496.722)"/><path id="path48" d="m0 0 2.913 3.143c4.345-3.976 7.072-9.569 7.072-15.81 0-12.02-10.216-21.82-22.652-21.82-12.527 0-22.698 9.8-22.698 21.82 0 6.009 2.543 11.511 6.657 15.394l3.005-3.098c-3.19-3.235-5.224-7.534-5.224-12.296 0-9.616 8.183-17.521 18.26-17.521 10.032 0 18.168 7.905 18.168 17.521C5.501-7.767 3.421-3.237 0 0" clip-path="url('#clipPath49-1')" style="fill:#08324d;fill-opacity:1;fill-rule:nonzero;stroke:none" transform="matrix(1.33333 0 0 -1.33333 126.977 540.668)"/></g></g></svg>