<?xml version="1.0" encoding="UTF-8" standalone="no"?>
<!-- Created with Inkscape (http://www.inkscape.org/) -->

<svg
   width="104.204"
   height="300.00101"
   viewBox="0 0 27.570642 79.375266"
   version="1.1"
   id="svg1"
   inkscape:version="1.3 (0e150ed6c4, 2023-07-21)"
   sodipodi:docname="background-tree.svg"
   xmlns:inkscape="http://www.inkscape.org/namespaces/inkscape"
   xmlns:sodipodi="http://sodipodi.sourceforge.net/DTD/sodipodi-0.dtd"
   xmlns="http://www.w3.org/2000/svg"
   xmlns:svg="http://www.w3.org/2000/svg">
  <sodipodi:namedview
     id="namedview1"
     pagecolor="#505050"
     bordercolor="#eeeeee"
     borderopacity="1"
     inkscape:showpageshadow="0"
     inkscape:pageopacity="0"
     inkscape:pagecheckerboard="0"
     inkscape:deskcolor="#505050"
     inkscape:document-units="mm"
     inkscape:zoom="1.2890643"
     inkscape:cx="-29.866626"
     inkscape:cy="324.6541"
     inkscape:window-width="2880"
     inkscape:window-height="1796"
     inkscape:window-x="-12"
     inkscape:window-y="-12"
     inkscape:window-maximized="1"
     inkscape:current-layer="layer1" />
  <defs
     id="defs1" />
  <g
     inkscape:label="Layer 1"
     inkscape:groupmode="layer"
     id="layer1">
    <path
       style="fill:#280b17;stroke-width:0.384138"
       d="m 12.882783,79.17822 -0.71979,-0.2028 0.1077,-4.20108 c 0.0594,-2.31057 0.012,-4.3548 -0.1035,-4.54275 -0.1431,-0.2313 -0.47676,-0.0342 -1.03623,0.61749 -0.80613,0.93714 -0.82935,0.94434 -1.00983,0.31158 -0.1212,-0.42558 -0.40743,-0.64782 -0.83321,-0.64782 -0.55575,0 -0.63358,-0.1278 -0.54441,-0.89373 0.0836,-0.71787 0.015,-0.85953 -0.34925,-0.71982 -0.2493,0.0957 -0.58614,0.174 -0.74849,0.174 -0.16236,0 -0.22677,0.1788 -0.14322,0.396 0.0887,0.231 -0.12843,0.52377 -0.52084,0.70257 -0.5267,0.24 -0.70739,0.2163 -0.83195,-0.108 -0.20466,-0.53334 -0.75305,-0.53934 -0.75305,-0.009 0,0.52737 -0.6495,0.42516 -1.27573,-0.2013 -0.27111,-0.2709 -0.74282,-0.49305 -1.04822,-0.49305 -0.305401,0 -0.555274,-0.1881 -0.555274,-0.41871 0,-0.31458 0.319293,-0.39945 1.288064,-0.34374 0.70843,0.0387 1.37785,0.1647 1.48759,0.2742 0.35701,0.35703 0.96733,0.2103 0.96733,-0.2322 0,-0.2688 0.27192,-0.432 0.71982,-0.432 0.39867,0 0.7198,-0.1671 0.7198,-0.37416 0,-0.537 -0.60413,-1.06533 -1.2183,-1.06533 -0.29001,0 -0.61288,-0.2229 -0.71747,-0.49551 -0.31921,-0.8319 -1.81206,-2.12688 -2.18385,-1.89456 -0.604581,0.37803 -1.003308,0.32916 -1.561707,-0.1911 -0.939285,-0.8751 -1.73574005,-1.20672 -1.92032105,-0.79956 -0.0891,0.1962 -0.12438,0.0984 -0.078,-0.2181 0.04599,-0.31671 0.20589,-0.55764 0.354825,-0.53538 0.14898,0.021 0.69190505,0.1293 1.20656705,0.2391 0.737406,0.1563 0.935751,0.1041 0.935751,-0.246 0,-0.2448 -0.25911,-0.58329 -0.575838,-0.75285 -0.316722,-0.1698 -0.575856,-0.498 -0.575856,-0.7299 0,-0.2319 0.25911,-0.42174 0.575856,-0.42174 0.316722,0 0.575838,-0.0651 0.575838,-0.144 0,-0.2559 -1.037736,-1.19034 -1.53359705,-1.38063 -0.661014,-0.2538 -0.603867,-0.74667 0.16596005,-1.43163 0.439434,-0.39087 0.532056,-0.61797 0.28791,-0.70557 -0.49848905,-0.1791 -0.45358505,-0.94503 0.05547,-0.94503 0.28278,0 0.443586,0.39045 0.503874,1.22367 0.06078,0.84039 0.2238,1.23243 0.520416,1.25151 0.23751,0.018 0.683242,0.1359 0.990472,0.2679 0.35803,0.1533 0.5979,0.1221 0.66805,-0.0888 0.067,-0.2007 0.43799,-0.2631 0.95303,-0.1599 0.70301,0.1407 0.84353,0.0747 0.84353,-0.39516 0,-0.76635 -0.29979,-1.00836 -0.76785,-0.61992 -0.29799,0.2469 -0.6567,0.1377 -1.53305,-0.47004 -0.62924,-0.43605 -1.079194,-0.89784 -0.999898,-1.02615 0.19077,-0.30858 2.238898,0.027 2.487058,0.40245 0.12951,0.198 0.3358,0.1791 0.62029,-0.057 0.25002,-0.2073 0.73531,-0.276 1.17362,-0.1659 0.5725,0.1437 0.74737,0.0789 0.74737,-0.2757 0,-0.2547 0.12951,-0.46305 0.28791,-0.46305 0.15837,0 0.28596,-0.35658 0.2835,-0.79179 -0.003,-0.43554 -0.0996,-0.65085 -0.21591,-0.47853 -0.29712,0.44004 -1.4722,0.69615 -1.6765,0.36558 -0.1032,-0.1671 -0.30117,-0.1713 -0.50415,-0.018 -0.43458,0.34158 -1.34199,0.32358 -1.34199,-0.027 0,-0.153 -0.42456,-0.1923 -0.96909,-0.09 -1.117513,0.2097 -1.910146,-0.012 -1.910146,-0.54684 0,-0.2019 -0.25911,-0.43557 -0.57585,-0.5181 -0.76868405,-0.201 -0.73085405,-0.67026 0.072,-0.89253 l 0.647838,-0.1797 -0.715506,-0.5544 c -0.87020105,-0.67416 -0.57554705,-1.10313 0.439932,-0.64044 1.023885,0.4665 1.283328,0.42045 1.283328,-0.2259 0,-0.50061 0.10047,-0.52959 0.935744,-0.2697 0.51466,0.1608 1.18899,0.43056 1.49852,0.60012 0.40693,0.2229 0.59275,0.2187 0.67105,-0.018 0.077,-0.231 0.26949,-0.2382 0.66685,-0.027 0.58082,0.31116 1.12252,0.1527 1.12252,-0.32745 0,-0.2418 -0.98561,-0.75078 -1.87151,-0.96717 -1.48641,-0.363 -2.08198,-0.64446 -2.78311,-1.31451 C 2.061465,47.6781 2.049834,47.58993 2.877615,47.34429 l 0.647818,-0.192 -0.647818,-0.264 C 2.521293,46.74339 2.22978,46.54971 2.22978,46.45827 c 0,-0.27 2.142163,0.204 2.346303,0.51912 0.10266,0.1587 0.41366,0.2013 0.69096,0.0951 0.46009,-0.1767 0.44578,-0.2553 -0.16401,-0.90462 -0.77205,-0.82185 -0.61605,-1.20045 0.29391,-0.71346 0.34381,0.1839 0.69194,0.2679 0.77351,0.1863 0.16908,-0.1689 -0.17706,-0.60762 -1.70926,-2.16564 -0.59383,-0.6039 -1.0797,-1.19742 -1.0797,-1.31886 0,-0.1218 0.45348,-0.1359 1.00771,-0.03 0.77839,0.1461 1.00774,0.093 1.00774,-0.2319 0,-0.2313 -0.16197,-0.47856 -0.35988,-0.54954 -0.19797,-0.0711 -0.26589,-0.2298 -0.1509,-0.35313 0.11493,-0.1236 0.37406,-0.0927 0.57586,0.0693 0.20178,0.1617 0.65837,0.38316 1.01467,0.49206 0.48079,0.1473 0.64783,0.0822 0.64783,-0.2526 0,-0.2481 -0.0993,-0.45102 -0.22086,-0.45102 -0.33498,0 -4.890129,-4.07655 -5.440773,-4.86903 -0.47403905,-0.68226 -0.47034005,-0.69051 0.21432,-0.48054 0.383109,0.1173 0.948342,0.246 1.25601,0.285 0.307683,0.0387 0.609983,0.2229 0.671823,0.40803 0.28035,0.84105 0.62942,0.2271 0.46294,-0.81441 -0.17565,-1.09818 -0.14901,-1.15167 0.57244,-1.15167 0.41615,0 0.75659,-0.0879 0.75659,-0.1956 0,-0.6372 -0.80674,-2.34546 -1.36296,-2.88594 -0.35889,-0.34842 -0.65248,-0.70506 -0.65248,-0.79176 0,-0.2253 1.59355,-0.1953 1.82304,0.0342 0.1053,0.1053 0.52278,0.2271 0.92767,0.27 0.98612,0.105 1.23172,-0.62745 0.45344,-1.35252 -0.33708,-0.31413 -0.61284,-0.68661 -0.61284,-0.828 0,-0.38703 1.46021,-0.153 1.72585,0.2769 0.12726,0.2061 0.43054,0.2979 0.67383,0.2049 0.24327,-0.0933 0.48308,-0.0672 0.53292,0.057 0.14349,0.35958 2.24999,0.003 2.24999,-0.37929 0,-0.75303 -0.78792,-1.26153 -2.23138,-1.44 -0.83137,-0.1029 -1.5116,-0.0747 -1.5116,0.0627 0,0.1377 -0.29151,0.2172 -0.64781,0.1779 -0.35633,-0.0387 -0.64784,-0.093 -0.64784,-0.1197 0,-0.027 -0.35272,-0.0738 -0.78384,-0.105 -0.43113,-0.03 -1.04654,-0.33945 -1.36763,-0.68436 -0.7172,-0.76986 -0.74756,-1.06914 -0.08,-0.78834 0.27711,0.1167 0.76297,0.249 1.07971,0.2943 0.31672,0.045 0.57583,0.102 0.57583,0.1251 0,0.027 0.41795,0.0837 0.92875,0.1341 1.38818,0.1371 1.76607,-0.52545 0.66942,-1.17324 -0.48308,-0.2856 -0.87837,-0.7227 -0.87837,-0.97179 0,-0.7467 -0.98642,-2.44611 -1.41985,-2.44611 -0.222,0 -0.45319,-0.1488 -0.5137,-0.33003 -0.0748,-0.2247 0.22908,-0.2847 0.95082,-0.1869 1.00539,0.1353 1.05362,0.105 0.92243,-0.58121 -0.1155,-0.60399 -0.0364,-0.71328 0.47698,-0.65856 0.3385,0.0342 0.76295,0.1569 0.94324,0.2679 0.1803,0.1113 0.40582,0.0768 0.50111,-0.0777 0.0953,-0.1539 -0.21966,-0.48351 -0.69992,-0.73188 -0.48024,-0.2487 -0.87319,-0.51057 -0.87319,-0.5826 0,-0.072 0.61545,-0.045 1.36766,0.0549 1.21936,0.1659 1.32733,0.1371 0.9959,-0.2649 -0.20445,-0.2481 -0.66654,-0.52527 -1.02691,-0.61566 -0.3603,-0.0903 -0.83826,-0.52422 -1.06204,-0.96399 -0.22377,-0.43956 -0.71639,-1.22064 -1.09471,-1.73529 -0.66006,-0.89796 -0.53054,-1.30752 0.18666,-0.59025 0.54435,0.54435 1.13595,-0.1719 0.63778,-0.77217 -0.43924,-0.52926 -0.29841,-0.73869 0.53892,-0.80175 0.47329,-0.0342 0.56716,-0.1758 0.42288,-0.63018 -0.16458,-0.51834 -0.13128,-0.53928 0.2949,-0.1857 0.86573,0.71853 0.87612,0.045 0.0141,-0.88248 -0.60371,-0.64845 -0.69249,-0.85149 -0.31291,-0.71592 0.74053,0.2643 1.1606,-0.0567 0.73876,-0.5649 -0.47228,-0.5691298 -0.11007,-0.8387398 0.67366,-0.5013298 0.35697,0.1533 1.03772,0.2013 1.5128,0.1059 l 0.86376,-0.1737 -1.05744,-0.51348 c -1.15694,-0.56175 -1.61912,-1.30011 -1.03976,-1.66083 0.29999,-0.1866 0.30035,-0.34203 0.003,-0.82209 -0.33987,-0.54831 -0.3136,-0.57849 0.35807,-0.41013 0.72027,0.1809 0.72237,0.1761 0.32754,-0.78456 -0.42861,-1.04253 -0.1461,-2.45637 0.42066,-2.10606 0.1719,0.1059 0.5667,-0.0801 0.87744,-0.41358 0.31074,-0.33345 0.68832,-0.60645 0.83907,-0.60645 0.1518,0 0.2097,-0.51336 0.1293,-1.15167 -0.1683,-1.33902201 0.0303,-1.48809201 0.4794,-0.36003001 0.177,0.44505001 0.37362,0.63423001 0.44877,0.43206001 0.0738,-0.19800001 0.37113,-0.36000001 0.66147,-0.36000001 0.2901,0 0.59319,-0.162 0.67308,-0.36 0.0798,-0.198 0.1752,0.0933 0.2118,0.64782001 0.0387,0.55425 0.0807,1.16814 0.0978,1.36428 0.018,0.1959 0.31374,0.55437 0.65913,0.79629 0.57105,0.39987 0.65475,0.39345 0.92394,-0.0687 0.2682,-0.46104 0.297,-0.45003 0.30516,0.1152 0.003,0.34287 0.1407,0.66771 0.30084,0.72132 0.46554,0.1551 -0.54882,1.39014 -1.14174,1.39014 -0.2907,0 -0.60327,0.1947 -0.69441,0.43206 -0.2388,0.62244 0.46902,0.53667 1.36092,-0.165 0.89226,-0.70185 1.02246,-0.243 0.1728,0.60726 -0.32229,0.32271 -0.50916,0.71121 -0.41487,0.86376 0.0948,0.1527 0.027,0.2778 -0.1506,0.2778 -0.177,0 -0.2379,0.1359 -0.1353,0.30216 0.1269,0.2061 0.318,0.1923 0.59979,-0.0387 0.2277,-0.1887 0.48603,-0.27 0.57522,-0.1809 0.33387,0.33387 -1.27158,1.07373 -2.42892,1.11909 -1.18749,0.045 -1.50276,0.40071 -0.89655,1.00683 0.2157,0.2154 0.61875,0.1938 1.36767,-0.0738 1.28943,-0.4605 1.87623,-0.5022 1.63791,-0.1167 -0.0978,0.1587 -0.42954,0.288 -0.7368,0.288 -0.87348,0 -0.65511,0.5716798 0.2331,0.6099598 0.80307,0.0342 0.93831,0.018 1.91658,-0.2586 0.41958,-0.1178998 0.48801,-0.0588 0.2901,0.2511 -0.1419,0.2229 -0.2637,0.95589 -0.2691,1.62891 -0.009,1.18101 0.2103,1.53591 0.58149,0.93576 0.0981,-0.1587 0.30303,-0.288 0.45555,-0.288 0.1527,0 0.0657,0.324 -0.1941,0.71979 -0.2598,0.39603 -0.71586,0.71982 -1.01439,0.71982 -0.2988,0 -0.54273,0.1377 -0.54273,0.30513 0,0.1677 -0.1293,0.225 -0.288,0.1269 -0.1587,-0.0981 -0.288,-0.027 -0.288,0.1629 0,0.41571 1.42314,0.1749 2.68203,-0.45303 1.04196,-0.51981 1.29147,-0.54513 0.83058,-0.0843 -0.69174,0.69174 -0.408,1.15353 0.5763,0.93735 l 0.92181,-0.2028 -0.84891,0.89943 c -0.46701,0.49452 -1.01124,0.89937 -1.20969,0.89937 -0.43152,0 -0.48453,0.48651 -0.0687,0.62535 0.45906,0.153 -0.54474,1.39008 -1.12791,1.39008 -0.48501,0 -1.4679,0.83094 -1.4679,1.24122 0,0.246 3.14292,0.0387 3.88695,-0.2568 0.51225,-0.2031 0.5322,-0.1749 0.1803,0.2577 -0.33684,0.41445 -0.33342,0.48555 0.027,0.48555 0.2307,0 0.5082,-0.0891 0.61701,-0.198 0.1086,-0.1083 0.42216,-0.228 0.69582,-0.2643 0.2739,-0.0342 0.82188,-0.1518 1.21776,-0.2559 l 0.71982,-0.1893 -0.64845,0.57246 c -0.37416,0.33 -0.57777,0.75665 -0.48153,1.00733 0.2397,0.62397 -0.96765,1.713 -1.93599,1.7466 -0.45099,0.018 -0.81981,0.1827 -0.82026,0.37158 -10e-4,0.50262 0.54714,0.75666 0.94773,0.43902 0.1911,-0.1518 0.86562,-0.36258 1.49898,-0.46851 l 1.1517,-0.1932 -0.99384,0.89244 c -0.73869,0.66336 -1.16919,0.8484 -1.67697,0.72096 -0.8589,-0.2157 -2.65575,0.41313 -2.65575,0.92886 0,0.2928 0.2637,0.336 1.0797,0.1773 0.59385,-0.1158 1.33881,-0.219 1.65555,-0.231 0.31671,-0.009 0.74646,-0.1302 0.9549,-0.264 0.2088,-0.1332 0.46755,-0.1473 0.57585,-0.03 0.108,0.117 0.0342,0.27 -0.1629,0.34029 -0.198,0.0711 -0.36042,0.2793 -0.36042,0.46455 -4.2e-4,0.1848 -0.37458,0.58632 -0.83163,0.89247 -0.68787,0.46101 -1.7589,2.18349 -1.7589,2.82906 0,0.093 0.71262,0.108 1.58358,0.0342 0.87096,-0.0747 1.58355,-0.045 1.58355,0.0618 0,0.1086 -0.324,0.49704 -0.71979,0.86403 -0.75537,0.70008 -0.92622,1.3968 -0.41916,1.71012 0.1653,0.102 0.49257,0.027 0.72675,-0.168 0.2343,-0.1947 0.52005,-0.2601 0.63477,-0.1449 0.1143,0.1146 -0.027,0.38058 -0.315,0.59136 -0.50607,0.36987 -0.50604,0.39258 3.3e-4,0.67965 0.50106,0.2841 0.49905,0.31629 -0.0519,0.74556 -0.54381,0.42345 -0.54747,0.46554 -0.066,0.75408 0.61179,0.36645 0.39471,0.84591 -0.38316,0.84591 -0.30729,0 -0.55884,0.1227 -0.55884,0.2712 0,0.1497 -0.38871,0.50127 -0.86376,0.78189 -1.25754,0.74286 -1.14195,1.32477 0.216,1.08663 0.59382,-0.1041 1.37121,-0.372 1.72755,-0.5955 0.56811,-0.35616 0.64779,-0.351 0.64779,0.0387 0,0.246 -0.1812,0.51723 -0.40329,0.60243 -0.222,0.0849 -0.47256,0.41874 -0.55674,0.74064 -0.129,0.49305 -0.0387,0.56463 0.54753,0.45207 0.79428,-0.1521 0.90687,0.1203 0.2688,0.64998 -0.2373,0.1971 -0.4335,0.2457 -0.43605,0.1071 -0.003,-0.138 -0.1641,0.0609 -0.36,0.44301 -0.1953,0.38145 -0.59289,0.72816 -0.88284,0.7698 -0.94845,0.1359 -3.91308,1.69461 -3.92448,2.06319 -0.018,0.44502 1.03353,0.47802 1.3035,0.0387 0.141,-0.2283 0.2577,-0.2211 0.41016,0.027 0.147,0.2379 0.38142,0.2598 0.75579,0.0693 0.91035,-0.46299 2.41395,-0.89052 2.41395,-0.68637 0,0.1059 -0.51828,0.74268 -1.1517,1.41522 -0.70089,0.74409 -1.15167,1.50021 -1.15167,1.93179 0,0.41442 -0.2397,0.83715 -0.57585,1.01727 -0.80523,0.43104 -0.75396,1.21263 0.072,1.09779 0.58455,-0.081 0.64128,0.021 0.58098,1.01958 -0.0651,1.08063 -0.045,1.10376 0.71982,0.88701 0.43251,-0.1227 1.27248,-0.1977 1.86633,-0.1671 0.60318,0.03 1.07973,-0.0789 1.07973,-0.2493 0,-0.2136 0.1728,-0.2127 0.57585,0.003 0.39942,0.2139 0.7461,0.2169 1.13274,0.009 0.69783,-0.37374 1.4586,-0.38574 1.4586,-0.027 0,0.36558 -1.25754,1.6092 -1.86099,1.84074 -0.54564,0.2097 -0.33216,0.76365 0.2943,0.76365 0.71517,0 0.45453,0.79734 -0.59286,1.81476 -1.0665,1.03584 -1.29117,1.52283 -0.57582,1.24827 0.2373,-0.0909 0.432,-0.0387 0.432,0.1131 0,0.1533 0.0969,0.2637 0.216,0.2451 0.56277,-0.0891 0.68742,0.0717 0.36087,0.46455 -0.1968,0.2367 -0.2889,0.69015 -0.2061,1.00773 0.0987,0.37542 0.009,0.57738 -0.2541,0.57738 -0.53265,0 -0.51114,0.2229 0.0783,0.81237 0.45255,0.45255 0.45255,0.48906 0,0.57642 -0.2661,0.051 -0.483,0.33813 -0.483,0.63762 0,0.2997 -0.2913,0.69816 -0.64785,0.88581 -0.35658,0.1878 -0.71265,0.41916 -0.79176,0.51396 -0.0789,0.0951 -0.38058,0.30258 -0.67014,0.46056 -0.87369,0.47802 -0.52815,0.86946 0.68223,0.77238 0.63438,-0.051 1.13958,0.0342 1.13958,0.1989 0,0.1659 0.33645,0.1152 0.78765,-0.1188 0.73353,-0.38058 0.8061,-0.36471 1.0542,0.2331 0.1467,0.35316 0.2802,0.77124 0.2973,0.92958 0.0501,0.44457 -1.15125,1.2957 -1.82469,1.2957 -0.33171,0 -0.6024,0.1437 -0.6024,0.31845 0,0.1911 -0.2019,0.2349 -0.50388,0.1101 -0.83301,-0.345 -1.79949,-0.39642 -1.79949,-0.096 0,0.1551 -0.2589,0.1998 -0.57585,0.099 -0.41187,-0.1311 -0.57585,-0.0519 -0.57585,0.2778 0,0.2529 -0.1947,0.53493 -0.43203,0.62604 -0.52056,0.2001 -0.5814,1.25772 -0.072,1.25145 0.198,-0.003 0.54366,-0.1203 0.76824,-0.2631 0.2628,-0.1659 0.63534,-0.1101 1.04493,0.1587 0.56529,0.37071 0.65694,0.36387 0.81783,-0.0549 0.0993,-0.2598 0.36171,-0.40287 0.58245,-0.318 0.2208,0.0843 0.47952,0.0753 0.57549,-0.021 0.096,-0.096 0.49701,-0.1884 0.89193,-0.2058 0.492,-0.021 0.71769,0.1206 0.71769,0.45105 0,0.61701 -0.68907,0.88869 -1.14066,0.44952 -0.2679,-0.2604 -0.32487,-0.2064 -0.2511,0.2382 0.0711,0.42471 -0.1872,0.7143 -0.98364,1.1034 -0.59385,0.2901 -1.07967,0.6465 -1.07967,0.79182 0,0.36471 -1.07481,0.33342 -1.30431,-0.0387 -0.126,-0.2037 -0.30045,-0.2073 -0.53616,-0.009 -0.243,0.2019 -0.64245,0.1119 -1.31184,-0.2949 -0.74877,-0.45555 -1.0128,-0.50373 -1.18944,-0.2181 -0.1251,0.2019 -0.1629,0.47055 -0.0849,0.59706 0.078,0.1263 -0.078,0.2292 -0.34716,0.2292 -0.2691,0 -0.64659,0.2157 -0.8391,0.4785 -0.43452,0.59424 -1.29273,0.32016 -1.50192,-0.48 -0.0822,-0.31587 -0.2478,-0.57438 -0.36645,-0.57438 -0.37887,0 -0.5151,2.08869 -0.38445,5.89431 0.0978,2.84328 0.0387,3.75087 -0.2502,3.93495 -0.42171,0.2676 -0.39171,0.2676 -1.38492,-0.012 z M 9.999153,68.28135 c -0.003,-0.1188 -0.1248,-0.40674 -0.2724,-0.63954 -0.3317,-0.52452 -0.72088,-0.1968 -0.4877,0.41103 0.1722,0.4485 0.76814,0.62781 0.75998,0.2283 z m 4.84152,-0.1293 c 0.2688,-0.2691 0.34545,-0.258 0.34545,0.0501 0,0.2163 0.0852,0.30816 0.1899,0.2037 0.1047,-0.1047 -0.0522,-0.45804 -0.34842,-0.78537 -0.42174,-0.46602 -0.45777,-0.64515 -0.1659,-0.82545 0.2868,-0.177 0.2577,-0.2748 -0.1248,-0.42087 -0.2733,-0.105 -0.56508,-0.123 -0.64797,-0.0387 -0.0831,0.0831 0.027,0.1503 0.2427,0.1503 0.306,0 0.31671,0.0762 0.048,0.34545 -0.38574,0.38574 -0.47424,1.66992 -0.1152,1.66992 0.1269,0 0.38571,-0.1557 0.57582,-0.34542 z m -4.26126,-1.38207 c 0,-0.1587 -0.2019,-0.288 -0.44889,-0.288 -0.2469,0 -0.36882,0.1293 -0.2709,0.288 0.0978,0.1587 0.3,0.288 0.44889,0.288 0.1491,0 0.2709,-0.1293 0.2709,-0.288 z m 7.19808,-1.58361 c 0,-0.2373 -0.1221,-0.432 -0.2709,-0.432 -0.363,0 -0.6231,0.44955 -0.393,0.67959 0.324,0.32445 0.66396,0.1977 0.66396,-0.2472 z m -10.36963,-0.216 c 0.003,0.198 0.16638,0.35616 0.36434,0.351 0.59834,-0.018 1.43883,-0.7944 1.22688,-1.13739 -0.14292,-0.231 -0.3037,-0.2337 -0.57438,-0.009 -0.20676,0.1713 -0.48674,0.2871 -0.6222,0.2559 -0.46754,-0.1059 -1.25014,0.38442 -1.07237,0.67236 0.10953,0.1773 0.2736,0.138 0.42584,-0.102 0.1821,-0.2877 0.24867,-0.2958 0.25191,-0.03 z m 10.87351,-1.00374 c -0.2769,-0.0651 -0.50388,-0.30387 -0.50388,-0.53145 0,-0.34113 -0.1002,-0.35058 -0.57585,-0.0534 -0.83286,0.52011 -0.71556,0.68148 0.50388,0.693 0.59385,0.003 0.85296,-0.045 0.57585,-0.108 z m 1.51158,-0.0759 c 0,-0.1587 -0.1293,-0.288 -0.288,-0.288 -0.1587,0 -0.288,0.1296 -0.288,0.288 0,0.1584 0.1293,0.288 0.288,0.288 0.1587,0 0.288,-0.1296 0.288,-0.288 z m 2.01543,-2.19024 c 0,-0.46056 -0.74166,-0.54366 -1.00773,-0.1131 -0.0978,0.1587 -0.1017,0.41187 -0.009,0.56325 0.237,0.38316 1.0155,0.0387 1.0155,-0.45 z m -6.04638,-0.003 c 0,-0.0999 -0.279,-0.42387 -0.61986,-0.71985 -1.04154,-0.9033 -1.55013,-0.60267 -0.60378,0.35703 0.49617,0.5031 1.22364,0.71889 1.22364,0.363 z m 4.31886,-0.1059 c 0,-0.1584 -0.1293,-0.288 -0.288,-0.288 -0.1587,0 -0.288,0.1296 -0.288,0.288 0,0.1587 0.1293,0.288 0.288,0.288 0.1587,0 0.288,-0.1296 0.288,-0.288 z m -4.89471,-2.87919 c 0,-0.1587 -0.2019,-0.288 -0.44886,-0.288 -0.2469,0 -0.369,0.1293 -0.2709,0.288 0.0978,0.1587 0.30003,0.288 0.44892,0.288 0.1491,0 0.2709,-0.1293 0.2709,-0.288 z m -2.87919,-0.288 c 0,-0.1584 -0.1455,-0.288 -0.32319,-0.288 -0.2325,0 -0.2361,-0.105 -0.012,-0.37413 0.4803,-0.5787 0.2634,-2.05173 -0.3186,-2.16381 -0.59733,-0.1149 -1.01913,0.77553 -0.51489,1.0872 0.2661,0.1647 0.2454,0.2607 -0.0834,0.38658 -0.2406,0.0927 -0.50037,0.012 -0.57726,-0.1761 -0.1068,-0.2619 -0.1452,-0.2607 -0.1626,0.003 -0.012,0.1923 0.2364,0.48855 0.55311,0.65796 0.31674,0.1692 0.57585,0.49803 0.57585,0.72987 0,0.2319 0.1944,0.42216 0.43191,0.42216 0.2376,0 0.43188,-0.1293 0.43188,-0.288 z m -3.92681,-1.0077 c 0.12531,-0.32658 -0.0514,-0.43203 -0.72425,-0.43203 -0.75846,0 -0.83702,0.0639 -0.53156,0.43203 0.1971,0.2373 0.52305,0.43203 0.72426,0.43203 0.20121,0 0.44038,-0.1944 0.53155,-0.43203 z m 1.3355,-0.43203 c 0,-0.31671 -0.1296,-0.57582 -0.28799,-0.57582 -0.1584,0 -0.288,0.2589 -0.288,0.57582 0,0.31674 0.1296,0.57585 0.288,0.57585 0.15839,0 0.28799,-0.2589 0.28799,-0.57585 z m 15.54789,-0.57582 c 0,-0.1587 -0.1293,-0.288 -0.288,-0.288 -0.1587,0 -0.288,0.1293 -0.288,0.288 0,0.1584 0.1293,0.288 0.288,0.288 0.1587,0 0.288,-0.1293 0.288,-0.288 z m -10.62333,-1.81287 c -0.36942,-0.36945 -0.7443,-0.084 -0.4707,0.35871 0.1059,0.1716 0.32445,0.2301 0.48579,0.1308 0.1968,-0.1218 0.1917,-0.2823 -0.018,-0.48957 z m 0.54594,-1.06641 c 0,-0.1587 -0.1941,-0.288 -0.43188,-0.288 -0.2373,0 -0.43188,0.1293 -0.43188,0.288 0,0.1587 0.1941,0.288 0.43188,0.288 0.2373,0 0.43188,-0.1293 0.43188,-0.288 z M 2.229651,52.95375 c 0,-0.1587 -0.12951,-0.288 -0.28791,-0.288 -0.15837,0 -0.28791,0.1296 -0.28791,0.288 0,0.1584 0.12957,0.288 0.28791,0.288 0.15837,0 0.28791,-0.1296 0.28791,-0.288 z m 8.637672,0 c 0,-0.1587 -0.0573,-0.288 -0.1269,-0.288 -0.0699,0 -0.207,0.1296 -0.30492,0.288 -0.0978,0.1584 -0.0408,0.288 0.1269,0.288 0.1677,0 0.30492,-0.1296 0.30492,-0.288 z m 4.31883,-0.288 c 0,-0.1584 -0.1293,-0.288 -0.288,-0.288 -0.1587,0 -0.288,0.1293 -0.288,0.288 0,0.1587 0.1293,0.288 0.288,0.288 0.1581,0 0.288,-0.1293 0.288,-0.288 z m 5.47056,-0.021 c 0,-0.1482 -0.0969,-0.2847 -0.216,-0.30216 -1.63281,-0.2433 -2.0874,-0.2112 -2.0874,0.1458 0,0.2658 0.37587,0.39942 1.1517,0.41058 0.63339,0.009 1.15164,-0.1056 1.15164,-0.2541 z m -2.59131,-0.2361 c 0,-0.306 -1.15338,-0.64233 -1.48956,-0.43452 -0.52251,0.32316 -0.1899,0.68889 0.6258,0.68889 0.47505,0 0.86376,-0.1143 0.86376,-0.2547 z m -2.59134,-0.57417 c 0,-0.1389 -0.1947,-0.414 -0.432,-0.6111 -0.2373,-0.1971 -0.43188,-0.53694 -0.43188,-0.75507 0,-0.2181 -0.1218,-0.39645 -0.2709,-0.39645 -0.42897,0 -0.204,1.43349 0.2721,1.73457 0.54258,0.34287 0.86226,0.35358 0.86226,0.03 z m -8.34972,-4.92993 c 0,-0.1587 -0.12951,-0.288 -0.28791,-0.288 -0.15837,0 -0.28791,0.1293 -0.28791,0.288 0,0.1587 0.12951,0.288 0.28791,0.288 0.15837,0 0.28791,-0.1296 0.28791,-0.288 z m 9.21354,-1.40607 c 0,-0.2499 -0.95034,-0.59781 -1.65558,-0.60546 -0.705,-0.003 -0.34584,0.53577 0.43188,0.65361 0.43554,0.066 0.88893,0.1392 1.00773,0.1629 0.1188,0.027 0.216,-0.0717 0.216,-0.2109 z m 0.86376,-0.77391 c 0,-0.85389 -2.26611,-1.24293 -2.53536,-0.43506 -0.0951,0.2859 0.0429,0.35358 0.48135,0.2388 0.33813,-0.0888 0.6144,-0.045 0.6144,0.1002 0,0.1437 0.32403,0.261 0.71982,0.261 0.396,0 0.71979,-0.0741 0.71979,-0.1647 z m 1.43961,-0.56541 c 0,-0.0738 -0.2589,-0.1341 -0.57585,-0.1341 -0.32613,0 -0.57582,0.192 -0.57582,0.44205 0,0.35271 0.1161,0.38013 0.57582,0.1341 0.31629,-0.1698 0.57585,-0.36858 0.57585,-0.44199 z m -3.4551,-0.99765 c 0,-0.1587 -0.1941,-0.288 -0.43188,-0.288 -0.2373,0 -0.43188,0.1293 -0.43188,0.288 0,0.1587 0.1941,0.288 0.43188,0.288 0.2373,0 0.43188,-0.1293 0.43188,-0.288 z m -0.86373,-0.99072 c 0,-0.0699 -0.1293,-0.207 -0.288,-0.30516 -0.1587,-0.0978 -0.288,-0.0387 -0.288,0.1269 0,0.1677 0.1293,0.30516 0.288,0.30516 0.1587,0 0.288,-0.057 0.288,-0.1269 z m -5.18261,-1.60053 c 0,-0.1587 -0.12951,-0.288 -0.28791,-0.288 -0.15837,0 -0.28791,0.1296 -0.28791,0.288 0,0.1584 0.12951,0.288 0.28791,0.288 0.15837,0 0.28791,-0.1296 0.28791,-0.288 z m 5.47049,-0.83022 c 0,-0.1401 0.2592,-0.32187 0.57585,-0.405 0.57876,-0.1512 0.81813,-0.78036 0.297,-0.78036 -0.1533,0 -0.2043,-0.1947 -0.1131,-0.43203 0.31671,-0.8247 -0.42558,-0.42687 -0.80583,0.43203 -0.2103,0.47502 -0.4803,0.86385 -0.59997,0.86385 -0.1197,0 -0.2178,0.1293 -0.2178,0.288 0,0.1587 0.1941,0.288 0.43188,0.288 0.2373,0 0.43188,-0.1143 0.43188,-0.2547 z m 5.18265,-2.049 c 0,-0.1587 -0.057,-0.288 -0.1269,-0.288 -0.0699,0 -0.207,0.1293 -0.30516,0.288 -0.0981,0.1587 -0.0387,0.288 0.1269,0.288 0.1677,0 0.30516,-0.1293 0.30516,-0.288 z M 6.998333,35.64648 c 0.10779,-0.1743 -0.0475,-0.56025 -0.34479,-0.85764 -0.4012,-0.40113 -0.74303,-0.48651 -1.32513,-0.33087 -1.01728,0.2721 -1.13849,0.759 -0.21957,0.882 0.39588,0.0531 0.84289,0.2151 0.99334,0.36 0.3634,0.35016 0.65751,0.33258 0.89611,-0.0537 z m 0.98978,0.1899 c 0,-0.0693 -0.12951,-0.207 -0.28791,-0.30516 -0.15837,-0.0978 -0.28791,-0.0387 -0.28791,0.1269 0,0.1677 0.12951,0.30516 0.28791,0.30516 0.15837,0 0.28791,-0.057 0.28791,-0.1269 z m 0.57585,-3.20112 c 0,-0.282 -0.3223,-0.41487 -1.00773,-0.41487 -1.23482,0 -1.41499,0.77334 -0.21597,0.92688 0.97551,0.1251 1.22367,0.021 1.22367,-0.51201 z m -2.3034,-0.2709 c 0,-0.2373 -0.18666,-0.43206 -0.41487,-0.43206 -0.48103,0 -0.80573,0.41103 -0.53703,0.67965 0.3441,0.34416 0.95191,0.186 0.95191,-0.2481 z m 4.03094,0.001 c 0,-0.2799 -0.2205,-0.39642 -0.63264,-0.33342 -0.91582,0.1401 -1.00664,0.76359 -0.111,0.76359 0.46782,0 0.74379,-0.1593 0.74379,-0.43002 z m 4.60677,-1.26663 c 0,-0.31971 -0.88578,-0.68067 -1.11261,-0.45402 -0.0918,0.0912 0.027,0.2871 0.2571,0.43401 0.53844,0.34074 0.85545,0.34758 0.85545,0.021 z m -2.3034,-0.60597 c 0,-0.1587 -0.1944,-0.288 -0.43188,-0.288 -0.2376,0 -0.43188,0.1293 -0.43188,0.288 0,0.1587 0.1944,0.288 0.43188,0.288 0.2376,0 0.43188,-0.1293 0.43188,-0.288 z m -0.86376,-0.86379 c 0,-0.1587 -0.1296,-0.288 -0.288,-0.288 -0.1584,0 -0.288,0.1293 -0.288,0.288 0,0.1587 0.1296,0.288 0.288,0.288 0.1584,0 0.288,-0.1293 0.288,-0.288 z m 3.45504,-0.83616 c 0,-0.2547 -0.6795,-0.60342 -1.17522,-0.60342 -0.62247,0 -0.198,0.74367 0.45543,0.79773 0.396,0.0342 0.71979,-0.0549 0.71979,-0.1947 z m 2.50737,-3.59064 c 0.0342,-0.0342 -0.018,-0.34713 -0.105,-0.69639 -0.1758,-0.67167 -0.94683,-0.88713 -0.98547,-0.2757 -0.021,0.288 -0.0519,0.288 -0.168,0 -0.0801,-0.198 -0.38274,-0.36 -0.67311,-0.36 -0.2907,0 -0.57867,-0.1527 -0.6408,-0.33903 -0.1806,-0.54168 -0.79878,0.021 -0.79878,0.72822 0,0.46956 0.2523,0.72756 0.93576,0.95565 0.76599,0.2553 2.17407,0.2481 2.43531,-0.012 z m -9.12956,-0.75579 c 0,-0.1587 -0.19437,-0.288 -0.43189,-0.288 -0.23757,0 -0.43188,-0.1377 -0.43188,-0.30516 0,-0.1677 -0.12831,-0.2253 -0.285,-0.1287 -0.1797,0.111 -0.15309,0.32616 0.072,0.58188 0.41559,0.47205 1.07684,0.55803 1.07684,0.1398 z m 14.68403,-3.16719 c 0,-0.1587 -0.1293,-0.288 -0.288,-0.288 -0.1587,0 -0.288,0.1293 -0.288,0.288 0,0.1587 0.1293,0.288 0.288,0.288 0.1587,0 0.288,-0.1293 0.288,-0.288 z m -10.36521,-4.57145 c 0,-0.1389 -0.1944,-0.414 -0.43188,-0.6111 -0.36081,-0.2997 -0.43188,-0.258 -0.43188,0.2523 0,0.351 0.1836,0.6111 0.43188,0.6111 0.2376,0 0.43188,-0.1137 0.43188,-0.2523 z m -2.01546,-3.49032 c 0,-0.1587 -0.2019,-0.288 -0.44883,-0.288 -0.2469,0 -0.36879,0.1293 -0.2709,0.288 0.0978,0.1587 0.3,0.288 0.44889,0.288 0.1491,0 0.2709,-0.1293 0.2709,-0.288 z m 6.91017,-2.02287 c 0,-0.41316 -0.50166,-0.34245 -1.30332,0.183 -0.38916,0.255 -0.63618,0.57828 -0.54936,0.71868 0.1899,0.30687 1.85268,-0.50199 1.85268,-0.90156 z m -4.89471,0.1512 c 0,-0.2373 -0.1296,-0.43206 -0.288,-0.43206 -0.1584,0 -0.288,0.1947 -0.288,0.43206 0,0.2373 0.1296,0.43206 0.288,0.43206 0.1584,0 0.288,-0.1947 0.288,-0.43206 z m 2.15055,-0.1293 c 0.093,-0.1506 -0.0939,-0.41403 -0.41487,-0.58596 -0.49767,-0.2667 -0.58392,-0.2259 -0.58392,0.2733 0,0.59547 0.69042,0.81147 0.99882,0.31245 z m -2.58243,-0.87819 c 0.0978,-0.1584 -0.024,-0.288 -0.2709,-0.288 -0.2469,0 -0.44889,0.1296 -0.44889,0.288 0,0.1587 0.1221,0.288 0.2709,0.288 0.1491,0 0.35103,-0.1296 0.44889,-0.288 z m -0.144,-1.5666298 c 0,-0.0699 -0.1296,-0.207 -0.288,-0.30516 -0.1584,-0.0981 -0.288,-0.0387 -0.288,0.1269 0,0.1677 0.1296,0.30516 0.288,0.30516 0.1584,0 0.288,-0.057 0.288,-0.1269 z"
       id="path940" />
  </g>
</svg>
