<?xml version="1.0" encoding="UTF-8" standalone="no"?>
<!-- Created with Inkscape (http://www.inkscape.org/) -->

<svg
   width="239.40601"
   height="300"
   viewBox="0 0 63.342838 79.375"
   version="1.1"
   id="svg1"
   xml:space="preserve"
   inkscape:version="1.3 (0e150ed6c4, 2023-07-21)"
   sodipodi:docname="test.svg"
   xmlns:inkscape="http://www.inkscape.org/namespaces/inkscape"
   xmlns:sodipodi="http://sodipodi.sourceforge.net/DTD/sodipodi-0.dtd"
   xmlns="http://www.w3.org/2000/svg"
   xmlns:svg="http://www.w3.org/2000/svg"><sodipodi:namedview
     id="namedview1"
     pagecolor="#505050"
     bordercolor="#eeeeee"
     borderopacity="1"
     inkscape:showpageshadow="0"
     inkscape:pageopacity="0"
     inkscape:pagecheckerboard="0"
     inkscape:deskcolor="#505050"
     inkscape:document-units="px"
     inkscape:zoom="1.8834853"
     inkscape:cx="147.33325"
     inkscape:cy="263.07612"
     inkscape:window-width="2880"
     inkscape:window-height="1796"
     inkscape:window-x="-12"
     inkscape:window-y="-12"
     inkscape:window-maximized="1"
     inkscape:current-layer="layer1"
     showguides="true"
     inkscape:lockguides="false" /><defs
     id="defs1"><clipPath
       clipPathUnits="userSpaceOnUse"
       id="clipPath3-6"><path
         d="M 0,841.89 H 595.276 V 0 H 0 Z"
         transform="translate(-38.333301,-487.59811)"
         id="path3-4" /></clipPath><clipPath
       clipPathUnits="userSpaceOnUse"
       id="clipPath5-0"><path
         d="M 0,841.89 H 595.276 V 0 H 0 Z"
         transform="translate(-43.020801,-482.09811)"
         id="path5-4" /></clipPath><clipPath
       clipPathUnits="userSpaceOnUse"
       id="clipPath7-1"><path
         d="M 0,841.89 H 595.276 V 0 H 0 Z"
         transform="translate(-43.020801,-482.09811)"
         id="path7-4" /></clipPath><clipPath
       clipPathUnits="userSpaceOnUse"
       id="clipPath9-3"><path
         d="M 0,841.89 H 595.276 V 0 H 0 Z"
         transform="translate(-118.80861,-415.49271)"
         id="path9-6" /></clipPath><clipPath
       clipPathUnits="userSpaceOnUse"
       id="clipPath11-7"><path
         d="M 0,841.89 H 595.276 V 0 H 0 Z"
         transform="translate(-116.82081,-410.59281)"
         id="path11-1" /></clipPath><clipPath
       clipPathUnits="userSpaceOnUse"
       id="clipPath13-0"><path
         d="M 0,841.89 H 595.276 V 0 H 0 Z"
         transform="translate(-114.92631,-407.35691)"
         id="path13-8" /></clipPath><clipPath
       clipPathUnits="userSpaceOnUse"
       id="clipPath15-3"><path
         d="M 0,841.89 H 595.276 V 0 H 0 Z"
         transform="translate(-110.3491,-404.35211)"
         id="path15-4" /></clipPath><clipPath
       clipPathUnits="userSpaceOnUse"
       id="clipPath17-8"><path
         d="M 0,841.89 H 595.276 V 0 H 0 Z"
         transform="translate(-106.9282,-403.52001)"
         id="path17-3" /></clipPath><clipPath
       clipPathUnits="userSpaceOnUse"
       id="clipPath19-7"><path
         d="M 0,841.89 H 595.276 V 0 H 0 Z"
         transform="translate(-104.1543,-397.64891)"
         id="path19-4" /></clipPath><clipPath
       clipPathUnits="userSpaceOnUse"
       id="clipPath21-1"><path
         d="M 0,841.89 H 595.276 V 0 H 0 Z"
         transform="translate(-100.50291,-395.84571)"
         id="path21-5" /></clipPath><clipPath
       clipPathUnits="userSpaceOnUse"
       id="clipPath23-6"><path
         d="M 0,841.89 H 595.276 V 0 H 0 Z"
         transform="translate(-96.942902,-394.59771)"
         id="path23-7" /></clipPath><clipPath
       clipPathUnits="userSpaceOnUse"
       id="clipPath25-9"><path
         d="M 0,841.89 H 595.276 V 0 H 0 Z"
         transform="translate(-91.2568,-393.07231)"
         id="path25-6" /></clipPath><clipPath
       clipPathUnits="userSpaceOnUse"
       id="clipPath27-6"><path
         d="M 0,841.89 H 595.276 V 0 H 0 Z"
         transform="translate(-89.176802,-398.61961)"
         id="path27-9" /></clipPath><clipPath
       clipPathUnits="userSpaceOnUse"
       id="clipPath29-6"><path
         d="M 0,841.89 H 595.276 V 0 H 0 Z"
         transform="translate(-72.587602,-393.35841)"
         id="path29-7" /></clipPath><clipPath
       clipPathUnits="userSpaceOnUse"
       id="clipPath31-3"><path
         d="M 0,841.89 H 595.276 V 0 H 0 Z"
         transform="translate(-70.833302,-396.59811)"
         id="path31-7" /></clipPath><clipPath
       clipPathUnits="userSpaceOnUse"
       id="clipPath33-7"><path
         d="M 0,841.89 H 595.276 V 0 H 0 Z"
         transform="translate(-62.960002,-397.89751)"
         id="path33-1" /></clipPath><clipPath
       clipPathUnits="userSpaceOnUse"
       id="clipPath35-0"><path
         d="M 0,841.89 H 595.276 V 0 H 0 Z"
         transform="translate(-63.706802,-400.63721)"
         id="path35-6" /></clipPath><clipPath
       clipPathUnits="userSpaceOnUse"
       id="clipPath37-2"><path
         d="M 0,841.89 H 595.276 V 0 H 0 Z"
         transform="translate(-54.644801,-404.31451)"
         id="path37-2" /></clipPath><clipPath
       clipPathUnits="userSpaceOnUse"
       id="clipPath39-8"><path
         d="M 0,841.89 H 595.276 V 0 H 0 Z"
         transform="translate(-58.259302,-408.77491)"
         id="path39-4" /></clipPath><clipPath
       clipPathUnits="userSpaceOnUse"
       id="clipPath41-2"><path
         d="M 0,841.89 H 595.276 V 0 H 0 Z"
         transform="translate(-49.140401,-411.97361)"
         id="path41-9" /></clipPath><clipPath
       clipPathUnits="userSpaceOnUse"
       id="clipPath43-1"><path
         d="M 0,841.89 H 595.276 V 0 H 0 Z"
         transform="translate(-47.079101,-418.46781)"
         id="path43-9" /></clipPath><clipPath
       clipPathUnits="userSpaceOnUse"
       id="clipPath45-4"><path
         d="M 0,841.89 H 595.276 V 0 H 0 Z"
         transform="translate(-71.425002,-476.60691)"
         id="path45-7" /></clipPath><clipPath
       clipPathUnits="userSpaceOnUse"
       id="clipPath47-2"><path
         d="M 0,841.89 H 595.276 V 0 H 0 Z"
         transform="translate(-76.278804,-469.34861)"
         id="path47-3" /></clipPath><clipPath
       clipPathUnits="userSpaceOnUse"
       id="clipPath49-1"><path
         d="M 0,841.89 H 595.276 V 0 H 0 Z"
         transform="translate(-95.2324,-436.38871)"
         id="path49-7" /></clipPath></defs><g
     inkscape:label="Layer 1"
     inkscape:groupmode="layer"
     id="layer1"
     transform="translate(-12.913044,-12.515719)"><g
       id="group-MC0"
       transform="matrix(0.53075743,0,0,0.53075743,-14.20881,-231.03676)"
       inkscape:label="group-MC0"><path
         id="path2"
         d="M 0,0 C 19.442,-6.983 30.318,-3.271 43.401,10.134 56.668,-2.994 72.167,-6.167 89.354,-0.167 L 89.5,-59 c 0,-57.667 -88.953,-56.93 -89.508,-0.439 z"
         style="fill:#08324d;fill-opacity:1;fill-rule:nonzero;stroke:none"
         transform="matrix(1.3333333,0,0,-1.3333333,51.111067,472.3892)"
         clip-path="url(#clipPath3-6)" /><path
         id="path4"
         d="M 0,0 C 15.014,-4.389 27.156,-2.996 38.852,8.978 50.733,-2.764 66.146,-4.5 80,0 l 0.041,-52.968 C 80.041,-105 0.483,-103.68 0.02,-53.246 Z"
         style="fill:#ffffff;fill-opacity:1;fill-rule:nonzero;stroke:none"
         transform="matrix(1.3333333,0,0,-1.3333333,57.361067,479.72253)"
         clip-path="url(#clipPath5-0)" /><path
         id="path6"
         d="M 0,0 38.646,-59.021 80,0 80.041,-52.968 c 0,-52.199 -80.021,-51.865 -80.021,-0.278 z"
         style="fill:#859995;fill-opacity:1;fill-rule:nonzero;stroke:none"
         transform="matrix(1.3333333,0,0,-1.3333333,57.361067,479.72253)"
         clip-path="url(#clipPath7-1)" /><path
         id="path8"
         d="M 0,0 -2.08,0.509 -5.917,-0.046 -5.64,1.249 -3.097,1.434 -5.177,2.913 -4.9,4.161 -1.756,1.71 0.324,1.202 Z"
         style="fill:#ffffff;fill-opacity:1;fill-rule:nonzero;stroke:none"
         transform="matrix(1.3333333,0,0,-1.3333333,158.41147,568.52973)"
         clip-path="url(#clipPath9-3)" /><path
         id="path10"
         d="M 0,0 -4.299,2.08 -4.9,0.924 -5.731,1.341 -4.068,4.854 -3.189,4.392 -3.79,3.236 0.555,1.109 Z"
         style="fill:#ffffff;fill-opacity:1;fill-rule:nonzero;stroke:none"
         transform="matrix(1.3333333,0,0,-1.3333333,155.76107,575.06293)"
         clip-path="url(#clipPath11-7)" /><path
         id="path12"
         d="M 0,0 -4.901,3.051 -4.3,4.021 0.6,0.971 Z"
         style="fill:#ffffff;fill-opacity:1;fill-rule:nonzero;stroke:none"
         transform="matrix(1.3333333,0,0,-1.3333333,153.23507,579.37747)"
         clip-path="url(#clipPath13-0)" /><path
         id="path14"
         d="M 0,0 0.786,0.971 0.924,0.832 C 1.156,0.693 1.387,0.601 1.479,0.601 1.664,0.555 1.803,0.647 1.941,0.832 2.034,0.971 2.126,1.156 2.08,1.294 2.08,1.479 1.988,1.618 1.849,1.71 1.664,1.849 1.248,1.849 0.647,1.664 L 0.555,1.618 C 0.277,1.525 0,1.433 -0.139,1.387 -0.324,1.34 -0.508,1.294 -0.601,1.294 -0.878,1.248 -1.109,1.248 -1.248,1.248 -1.479,1.34 -1.664,1.479 -1.849,1.618 -2.219,1.849 -2.45,2.265 -2.45,2.681 c -0.047,0.463 0.092,0.879 0.416,1.34 0.416,0.417 0.786,0.694 1.156,0.787 0.37,0 0.832,-0.093 1.201,-0.416 L 0.462,4.299 -0.277,3.375 c -0.231,0.138 -0.416,0.277 -0.601,0.277 -0.139,0 -0.323,-0.092 -0.463,-0.231 -0.092,-0.139 -0.138,-0.277 -0.092,-0.416 0,-0.139 0.092,-0.324 0.232,-0.417 0.23,-0.184 0.739,-0.138 1.432,0.139 0.185,0.046 0.37,0.139 0.416,0.139 0.416,0.139 0.832,0.231 1.064,0.185 0.23,0 0.554,-0.093 0.739,-0.278 0.462,-0.323 0.694,-0.739 0.739,-1.155 0,-0.416 -0.184,-0.925 -0.6,-1.433 -0.37,-0.462 -0.74,-0.74 -1.156,-0.786 -0.37,-0.093 -0.786,0.092 -1.202,0.416 0,0 -0.092,0.046 -0.092,0.092 C 0.139,-0.046 0.046,-0.046 0,0"
         style="fill:#ffffff;fill-opacity:1;fill-rule:nonzero;stroke:none"
         transform="matrix(1.3333333,0,0,-1.3333333,147.13213,583.38387)"
         clip-path="url(#clipPath15-3)" /><path
         id="path16"
         d="m 0,0 -0.231,-0.185 -1.017,1.156 0.231,0.185 C -0.786,1.387 -0.555,1.479 -0.37,1.525 -0.231,1.479 -0.046,1.34 0.139,1.156 0.324,0.924 0.416,0.739 0.37,0.555 0.37,0.416 0.231,0.185 0,0 M 3.375,-0.74 C 3.282,-0.601 3.097,-0.462 2.913,-0.231 L 2.82,-0.139 c 0,0.046 -0.092,0.093 -0.092,0.093 C 2.404,0.323 2.126,0.555 1.896,0.601 1.757,0.647 1.479,0.601 1.156,0.416 1.34,0.647 1.387,0.924 1.387,1.156 1.34,1.433 1.156,1.71 0.878,2.08 0.508,2.45 0.139,2.681 -0.231,2.681 c -0.277,0 -0.74,-0.231 -1.248,-0.647 l -1.295,-1.156 3.791,-4.345 0.879,0.785 -1.526,1.804 0.37,0.277 c 0.138,0.139 0.369,0.231 0.508,0.231 0.139,-0.047 0.37,-0.139 0.555,-0.37 0,-0.046 0.138,-0.185 0.277,-0.323 0.324,-0.416 0.648,-0.694 0.786,-0.833 l 0.971,0.833 C 3.698,-0.971 3.513,-0.878 3.375,-0.74"
         style="fill:#ffffff;fill-opacity:1;fill-rule:nonzero;stroke:none"
         transform="matrix(1.3333333,0,0,-1.3333333,142.57093,584.49333)"
         clip-path="url(#clipPath17-8)" /><path
         id="path18"
         d="M 0,0 -3.004,4.9 -0.37,6.518 0.093,5.778 -1.479,4.808 -0.785,3.606 0.693,4.484 1.157,3.745 -0.323,2.866 0.555,1.387 2.266,2.404 2.682,1.618 Z"
         style="fill:#ffffff;fill-opacity:1;fill-rule:nonzero;stroke:none"
         transform="matrix(1.3333333,0,0,-1.3333333,138.8724,592.32147)"
         clip-path="url(#clipPath19-7)" /><path
         id="path20"
         d="m 0,0 -3.837,4.577 1.109,0.554 1.849,-2.496 C -0.555,2.266 -0.278,1.988 -0.186,1.757 0,1.479 0.185,1.294 0.277,1.11 0.092,1.434 0,1.757 -0.093,2.081 -0.186,2.358 -0.231,2.682 -0.278,2.959 l -0.74,3.005 1.11,0.508 1.202,-5.871 z"
         style="fill:#ffffff;fill-opacity:1;fill-rule:nonzero;stroke:none"
         transform="matrix(1.3333333,0,0,-1.3333333,134.00387,594.72573)"
         clip-path="url(#clipPath21-1)" /><path
         id="path22"
         d="m 0,0 -1.756,5.455 1.109,0.37 1.803,-5.501 z"
         style="fill:#ffffff;fill-opacity:1;fill-rule:nonzero;stroke:none"
         transform="matrix(1.3333333,0,0,-1.3333333,129.2572,596.38973)"
         clip-path="url(#clipPath23-6)" /><path
         id="path24"
         d="M 0,0 -1.34,5.64 0.277,6.01 1.988,3.282 C 2.219,3.005 2.404,2.681 2.543,2.357 2.728,2.08 2.913,1.757 3.051,1.479 3.005,1.71 2.866,1.988 2.82,2.219 2.728,2.496 2.635,2.773 2.589,3.097 L 1.757,6.333 2.866,6.564 4.114,0.971 2.589,0.601 0.786,3.421 C 0.647,3.606 0.462,3.883 0.324,4.161 0.139,4.484 -0.046,4.808 -0.231,5.178 -0.185,4.854 -0.046,4.53 0,4.253 0.046,4.022 0.185,3.745 0.185,3.606 L 1.063,0.277 Z"
         style="fill:#ffffff;fill-opacity:1;fill-rule:nonzero;stroke:none"
         transform="matrix(1.3333333,0,0,-1.3333333,121.67573,598.4236)"
         clip-path="url(#clipPath25-9)" /><path
         id="path26"
         d="M 0,0 0.277,-3.606 C 0.37,-4.438 0.231,-4.993 0,-5.362 c -0.324,-0.37 -0.786,-0.601 -1.479,-0.648 -0.693,-0.046 -1.202,0.047 -1.526,0.37 -0.277,0.324 -0.509,0.832 -0.555,1.526 l -0.323,3.79 1.109,0.093 0.324,-3.467 c 0.046,-0.648 0.138,-1.11 0.278,-1.202 0.138,-0.185 0.369,-0.231 0.646,-0.231 0.232,0.046 0.463,0.138 0.555,0.323 0.046,0.231 0.093,0.601 0.046,1.248 l -0.277,3.468 z"
         style="fill:#ffffff;fill-opacity:1;fill-rule:nonzero;stroke:none"
         transform="matrix(1.3333333,0,0,-1.3333333,118.9024,591.0272)"
         clip-path="url(#clipPath27-6)" /><path
         id="path28"
         d="M 0,0 0.601,5.778 2.404,5.547 2.82,1.941 C 2.866,1.849 2.912,1.664 2.912,1.479 c -0.046,-0.185 0,-0.462 0,-0.739 0,0.184 0.093,0.369 0.093,0.601 0.046,0.184 0.139,0.415 0.139,0.6 L 4.299,5.362 6.195,5.178 5.594,-0.555 4.484,-0.462 4.947,3.467 c 0,0.277 0.045,0.555 0.092,0.786 0,0.231 0.093,0.416 0.138,0.601 L 3.375,-0.324 2.265,-0.231 1.572,5.27 C 1.526,4.946 1.526,4.438 1.479,3.837 L 1.526,3.791 1.156,-0.093 Z"
         style="fill:#ffffff;fill-opacity:1;fill-rule:nonzero;stroke:none"
         transform="matrix(1.3333333,0,0,-1.3333333,96.783467,598.04213)"
         clip-path="url(#clipPath29-6)" /><path
         id="path30"
         d="M 0,0 -1.097,0.458 0.405,2.51 Z m 0.133,3.591 -3.747,-4.64 1.136,-0.511 0.739,1.098 1.485,-0.662 -0.161,-1.285 1.182,-0.518 0.767,5.917 z"
         style="fill:#ffffff;fill-opacity:1;fill-rule:nonzero;stroke:none"
         transform="matrix(1.3333333,0,0,-1.3333333,94.4444,593.72253)"
         clip-path="url(#clipPath31-3)" /><path
         id="path32"
         d="M 0,0 2.943,4.981 4.317,4.168 3.707,1.034 C 3.652,0.668 3.597,0.302 3.497,-0.057 3.403,-0.37 3.348,-0.735 3.254,-1.049 c 0.08,0.222 0.213,0.483 0.339,0.697 0.132,0.261 0.265,0.522 0.404,0.828 L 5.645,3.361 6.589,2.799 3.691,-2.189 2.324,-1.33 2.909,1.948 C 2.989,2.17 3.037,2.49 3.085,2.81 3.178,3.123 3.24,3.535 3.393,3.932 3.208,3.633 3.069,3.327 2.936,3.066 2.811,2.851 2.678,2.59 2.657,2.453 L 0.989,-0.569 Z"
         style="fill:#ffffff;fill-opacity:1;fill-rule:nonzero;stroke:none"
         transform="matrix(1.3333333,0,0,-1.3333333,83.946667,591.99)"
         clip-path="url(#clipPath33-7)" /><path
         id="path34"
         d="m 0,0 -1.757,-2.359 c -0.398,0.185 -0.709,0.313 -0.877,0.472 -0.214,0.164 -0.433,0.282 -0.652,0.4 -0.255,0.215 -0.51,0.43 -0.632,0.583 -0.163,0.205 -0.326,0.41 -0.305,0.593 -0.101,0.338 -0.054,0.751 0.115,1.011 0.18,0.352 0.477,0.923 0.974,1.611 0.334,0.474 0.651,0.81 0.866,1.064 0.256,0.204 0.507,0.361 0.7,0.433 0.245,0.111 0.572,0.12 0.843,0.043 C -0.455,3.774 -0.144,3.646 0.152,3.379 0.671,3.041 0.951,2.637 0.997,2.213 1.082,1.738 0.938,1.289 0.604,0.815 L 0.553,0.774 -0.435,1.492 -0.384,1.533 c 0.215,0.255 0.339,0.519 0.313,0.709 C -0.05,2.425 -0.167,2.625 -0.335,2.783 -0.549,2.947 -0.824,2.979 -1.08,2.775 -1.285,2.612 -1.71,2.148 -2.207,1.461 -2.806,0.691 -3.098,0.167 -3.17,-0.058 c -0.031,-0.276 0.126,-0.526 0.426,-0.746 0.087,-0.057 0.128,-0.108 0.22,-0.118 0.035,-0.098 0.219,-0.119 0.306,-0.175 l 0.768,1.03 -0.515,0.384 0.548,0.728 z"
         style="fill:#ffffff;fill-opacity:1;fill-rule:nonzero;stroke:none"
         transform="matrix(1.3333333,0,0,-1.3333333,84.9424,588.33707)"
         clip-path="url(#clipPath35-0)" /><path
         id="path36"
         d="M 0,0 4.186,3.967 5.327,2.79 3.846,-0.087 C 3.723,-0.401 3.554,-0.71 3.34,-1.015 3.171,-1.324 3.003,-1.633 2.833,-1.941 c 0.161,0.216 0.32,0.433 0.522,0.6 0.206,0.213 0.416,0.471 0.623,0.684 L 6.381,1.667 7.14,0.853 2.955,-3.114 1.858,-1.941 3.354,1.074 C 3.462,1.249 3.585,1.563 3.75,1.826 3.918,2.134 4.091,2.489 4.352,2.79 4.096,2.536 3.89,2.323 3.684,2.11 3.482,1.944 3.323,1.727 3.171,1.602 L 0.758,-0.815 Z"
         style="fill:#ffffff;fill-opacity:1;fill-rule:nonzero;stroke:none"
         transform="matrix(1.3333333,0,0,-1.3333333,72.859733,583.434)"
         clip-path="url(#clipPath37-2)" /><path
         id="path38"
         d="m 0,0 -2.866,-2.219 c -0.647,-0.509 -1.202,-0.739 -1.665,-0.694 -0.416,0 -0.878,0.324 -1.294,0.879 -0.416,0.508 -0.601,1.017 -0.508,1.479 0.092,0.416 0.37,0.925 0.924,1.294 L -2.404,3.097 -1.664,2.126 -4.438,0 c -0.509,-0.37 -0.786,-0.693 -0.878,-0.878 -0.047,-0.185 0,-0.416 0.184,-0.648 0.185,-0.231 0.416,-0.323 0.555,-0.323 0.278,0.046 0.648,0.277 1.11,0.647 l 2.727,2.126 z"
         style="fill:#ffffff;fill-opacity:1;fill-rule:nonzero;stroke:none"
         transform="matrix(1.3333333,0,0,-1.3333333,77.679067,577.4868)"
         clip-path="url(#clipPath39-8)" /><path
         id="path40"
         d="M 0,0 1.942,0.924 4.531,3.837 5.085,2.681 3.329,0.878 5.871,1.156 6.426,-0.046 2.45,-0.139 0.555,-1.109 Z"
         style="fill:#ffffff;fill-opacity:1;fill-rule:nonzero;stroke:none"
         transform="matrix(1.3333333,0,0,-1.3333333,65.520533,573.22187)"
         clip-path="url(#clipPath41-2)" /><path
         id="path42"
         d="M 0,0 5.594,1.387 5.871,0.277 3.421,-0.37 6.241,-1.202 6.518,-2.45 3.513,-1.479 0.925,-3.837 0.601,-2.45 2.958,-0.508 0.277,-1.156 Z"
         style="fill:#ffffff;fill-opacity:1;fill-rule:nonzero;stroke:none"
         transform="matrix(1.3333333,0,0,-1.3333333,62.772133,564.56293)"
         clip-path="url(#clipPath43-1)" /><path
         id="path44"
         d="m 0,0 h 21.496 v -7.258 h 3.606 v -4.253 h -3.513 v -4.947 h 3.652 v -4.16 h -3.56 v -6.934 H 17.058 V -4.669 H 0 Z"
         style="fill:#08324d;fill-opacity:1;fill-rule:nonzero;stroke:none"
         transform="matrix(1.3333333,0,0,-1.3333333,95.233333,487.04413)"
         clip-path="url(#clipPath45-4)" /><path
         id="path46"
         d="m 0,0 v -23.16 h 16.966 v -4.946 H -4.715 V 0 Z"
         style="fill:#08324d;fill-opacity:1;fill-rule:nonzero;stroke:none"
         transform="matrix(1.3333333,0,0,-1.3333333,101.70507,496.72187)"
         clip-path="url(#clipPath47-2)" /><path
         id="path48"
         d="m 0,0 2.913,3.143 c 4.345,-3.976 7.072,-9.569 7.072,-15.81 0,-12.02 -10.216,-21.82 -22.652,-21.82 -12.527,0 -22.698,9.8 -22.698,21.82 0,6.009 2.543,11.511 6.657,15.394 l 3.005,-3.098 c -3.19,-3.235 -5.224,-7.534 -5.224,-12.296 0,-9.616 8.183,-17.521 18.26,-17.521 10.032,0 18.168,7.905 18.168,17.521 0,4.9 -2.08,9.43 -5.501,12.667"
         style="fill:#08324d;fill-opacity:1;fill-rule:nonzero;stroke:none"
         transform="matrix(1.3333333,0,0,-1.3333333,126.97653,540.6684)"
         clip-path="url(#clipPath49-1)" /></g></g></svg>
