<?xml version="1.0" encoding="UTF-8" standalone="no"?>
<!-- Created with Inkscape (http://www.inkscape.org/) -->

<svg
   width="387.51999"
   height="300"
   viewBox="0 0 102.53133 79.375"
   version="1.1"
   id="svg1"
   xml:space="preserve"
   inkscape:version="1.3 (0e150ed6c4, 2023-07-21)"
   sodipodi:docname="test.svg"
   xmlns:inkscape="http://www.inkscape.org/namespaces/inkscape"
   xmlns:sodipodi="http://sodipodi.sourceforge.net/DTD/sodipodi-0.dtd"
   xmlns="http://www.w3.org/2000/svg"
   xmlns:svg="http://www.w3.org/2000/svg"><sodipodi:namedview
     id="namedview1"
     pagecolor="#505050"
     bordercolor="#eeeeee"
     borderopacity="1"
     inkscape:showpageshadow="0"
     inkscape:pageopacity="0"
     inkscape:pagecheckerboard="0"
     inkscape:deskcolor="#505050"
     inkscape:document-units="px"
     inkscape:zoom="1.8834853"
     inkscape:cx="147.33325"
     inkscape:cy="263.07612"
     inkscape:window-width="2880"
     inkscape:window-height="1796"
     inkscape:window-x="-12"
     inkscape:window-y="-12"
     inkscape:window-maximized="1"
     inkscape:current-layer="layer1"
     showguides="true"
     inkscape:lockguides="false" /><defs
     id="defs1"><clipPath
       clipPathUnits="userSpaceOnUse"
       id="clipPath3-6"><path
         d="M 0,841.89 H 595.276 V 0 H 0 Z"
         transform="translate(-38.333301,-487.59811)"
         id="path3-4" /></clipPath><clipPath
       clipPathUnits="userSpaceOnUse"
       id="clipPath5-0"><path
         d="M 0,841.89 H 595.276 V 0 H 0 Z"
         transform="translate(-43.020801,-482.09811)"
         id="path5-4" /></clipPath><clipPath
       clipPathUnits="userSpaceOnUse"
       id="clipPath7-1"><path
         d="M 0,841.89 H 595.276 V 0 H 0 Z"
         transform="translate(-43.020801,-482.09811)"
         id="path7-4" /></clipPath><clipPath
       clipPathUnits="userSpaceOnUse"
       id="clipPath9-3"><path
         d="M 0,841.89 H 595.276 V 0 H 0 Z"
         transform="translate(-118.80861,-415.49271)"
         id="path9-6" /></clipPath><clipPath
       clipPathUnits="userSpaceOnUse"
       id="clipPath11-7"><path
         d="M 0,841.89 H 595.276 V 0 H 0 Z"
         transform="translate(-116.82081,-410.59281)"
         id="path11-1" /></clipPath><clipPath
       clipPathUnits="userSpaceOnUse"
       id="clipPath13-0"><path
         d="M 0,841.89 H 595.276 V 0 H 0 Z"
         transform="translate(-114.92631,-407.35691)"
         id="path13-8" /></clipPath><clipPath
       clipPathUnits="userSpaceOnUse"
       id="clipPath15-3"><path
         d="M 0,841.89 H 595.276 V 0 H 0 Z"
         transform="translate(-110.3491,-404.35211)"
         id="path15-4" /></clipPath><clipPath
       clipPathUnits="userSpaceOnUse"
       id="clipPath17-8"><path
         d="M 0,841.89 H 595.276 V 0 H 0 Z"
         transform="translate(-106.9282,-403.52001)"
         id="path17-3" /></clipPath><clipPath
       clipPathUnits="userSpaceOnUse"
       id="clipPath19-7"><path
         d="M 0,841.89 H 595.276 V 0 H 0 Z"
         transform="translate(-104.1543,-397.64891)"
         id="path19-4" /></clipPath><clipPath
       clipPathUnits="userSpaceOnUse"
       id="clipPath21-1"><path
         d="M 0,841.89 H 595.276 V 0 H 0 Z"
         transform="translate(-100.50291,-395.84571)"
         id="path21-5" /></clipPath><clipPath
       clipPathUnits="userSpaceOnUse"
       id="clipPath23-6"><path
         d="M 0,841.89 H 595.276 V 0 H 0 Z"
         transform="translate(-96.942902,-394.59771)"
         id="path23-7" /></clipPath><clipPath
       clipPathUnits="userSpaceOnUse"
       id="clipPath25-9"><path
         d="M 0,841.89 H 595.276 V 0 H 0 Z"
         transform="translate(-91.2568,-393.07231)"
         id="path25-6" /></clipPath><clipPath
       clipPathUnits="userSpaceOnUse"
       id="clipPath27-6"><path
         d="M 0,841.89 H 595.276 V 0 H 0 Z"
         transform="translate(-89.176802,-398.61961)"
         id="path27-9" /></clipPath><clipPath
       clipPathUnits="userSpaceOnUse"
       id="clipPath29-6"><path
         d="M 0,841.89 H 595.276 V 0 H 0 Z"
         transform="translate(-72.587602,-393.35841)"
         id="path29-7" /></clipPath><clipPath
       clipPathUnits="userSpaceOnUse"
       id="clipPath31-3"><path
         d="M 0,841.89 H 595.276 V 0 H 0 Z"
         transform="translate(-70.833302,-396.59811)"
         id="path31-7" /></clipPath><clipPath
       clipPathUnits="userSpaceOnUse"
       id="clipPath33-7"><path
         d="M 0,841.89 H 595.276 V 0 H 0 Z"
         transform="translate(-62.960002,-397.89751)"
         id="path33-1" /></clipPath><clipPath
       clipPathUnits="userSpaceOnUse"
       id="clipPath35-0"><path
         d="M 0,841.89 H 595.276 V 0 H 0 Z"
         transform="translate(-63.706802,-400.63721)"
         id="path35-6" /></clipPath><clipPath
       clipPathUnits="userSpaceOnUse"
       id="clipPath37-2"><path
         d="M 0,841.89 H 595.276 V 0 H 0 Z"
         transform="translate(-54.644801,-404.31451)"
         id="path37-2" /></clipPath><clipPath
       clipPathUnits="userSpaceOnUse"
       id="clipPath39-8"><path
         d="M 0,841.89 H 595.276 V 0 H 0 Z"
         transform="translate(-58.259302,-408.77491)"
         id="path39-4" /></clipPath><clipPath
       clipPathUnits="userSpaceOnUse"
       id="clipPath41-2"><path
         d="M 0,841.89 H 595.276 V 0 H 0 Z"
         transform="translate(-49.140401,-411.97361)"
         id="path41-9" /></clipPath><clipPath
       clipPathUnits="userSpaceOnUse"
       id="clipPath43-1"><path
         d="M 0,841.89 H 595.276 V 0 H 0 Z"
         transform="translate(-47.079101,-418.46781)"
         id="path43-9" /></clipPath><clipPath
       clipPathUnits="userSpaceOnUse"
       id="clipPath45-4"><path
         d="M 0,841.89 H 595.276 V 0 H 0 Z"
         transform="translate(-71.425002,-476.60691)"
         id="path45-7" /></clipPath><clipPath
       clipPathUnits="userSpaceOnUse"
       id="clipPath47-2"><path
         d="M 0,841.89 H 595.276 V 0 H 0 Z"
         transform="translate(-76.278804,-469.34861)"
         id="path47-3" /></clipPath><clipPath
       clipPathUnits="userSpaceOnUse"
       id="clipPath49-1"><path
         d="M 0,841.89 H 595.276 V 0 H 0 Z"
         transform="translate(-95.2324,-436.38871)"
         id="path49-7" /></clipPath></defs><g
     inkscape:label="Layer 1"
     inkscape:groupmode="layer"
     id="layer1"
     transform="translate(-12.913044,-12.515719)"><g
       style="fill-rule:evenodd"
       id="g83"
       transform="matrix(0.48031695,0,0,0.48031695,-97.269507,-70.273151)"><g
         id="g94"><path
           style="fill:#94a6a6;stroke:none"
           d="m 293.687,194.251 0.361,34.92 c 0,0 -0.248,25.103 1.727,31.536 1.975,6.433 8.975,27.433 39.744,28.368 32.481,0.315 39.281,-22.643 41.256,-29.664 1.975,-7.021 0.927,-28.195 0.576,-31.608 -0.351,-3.413 -0.576,-34.92 -0.576,-34.92 l -42.048,63.288 z"
           id="path1" /><path
           style="fill:#004557;stroke:none"
           d="m 375.479,263.875 v 11.88 c 4.536,-6.768 7.2,-15.264 7.056,-25.56 l -0.216,-14.184 c 2.952,0.36 5.256,1.152 8.208,1.872 0.864,2.16 1.8,3.743 3.24,5.4 3.6,4.032 8.208,6.696 13.248,8.712 -5.256,5.544 -4.248,12.096 -0.576,19.583 0.432,0.721 0.432,1.656 -0.792,2.233 -8.928,3.24 -17.712,5.832 -22.608,12.312 -1.512,3.527 -2.664,7.128 -1.44,12.024 2.592,-1.656 8.136,-2.449 9.144,-4.824 -0.504,-0.936 -1.656,-2.52 -1.296,-4.032 1.08,-0.36 2.304,-0.504 3.456,0.503 2.16,0.865 -0.144,-2.519 -0.288,-3.815 1.584,-2.664 8.064,-3.6 14.616,-4.392 4.968,-0.576 8.856,-3.024 11.808,-7.272 0.648,1.944 0.072,3.239 0.216,4.32 -2.088,7.56 -4.176,15.192 -6.336,22.752 -4.752,1.8 -6.912,4.68 -7.632,8.064 0,0.576 0,0.864 0.288,1.007 0.936,1.297 6.624,-1.655 11.16,-0.647 -0.36,-1.656 -0.576,-3.168 -0.792,-4.68 0.144,-0.361 0.36,-0.649 0.576,-0.792 0.864,-0.576 2.376,-0.792 2.808,-1.656 0.36,-1.296 -0.792,-2.376 -1.08,-3.528 5.544,-8.064 10.224,-16.704 14.76,-25.416 -1.584,-3.384 -1.728,-3.24 -0.072,-6.048 6.12,-5.833 6.984,-7.272 7.2,-16.632 0.432,-1.224 1.44,-2.448 1.944,-3.672 1.296,-4.176 0.864,-6.264 -0.432,-10.512 -2.088,-6.192 0.936,-15.264 -0.936,-22.177 -0.288,1.225 -1.224,1.801 -1.08,1.729 -0.504,-7.056 -4.104,-12.24 -8.64,-16.2 1.944,5.471 0.144,8.712 1.728,13.968 -0.936,-1.44 -1.08,-1.008 -1.512,-2.449 -0.072,3.024 0.504,7.561 2.016,9.433 -0.432,-1.008 -1.224,-0.792 -1.656,-2.16 -0.288,7.92 3.672,10.655 6.696,17.568 0.792,1.728 2.88,10.44 -0.504,10.872 -1.8,-4.824 -7.272,-8.857 -15.552,-12.24 -5.832,-2.449 -7.704,-6.912 -6.912,-12.168 1.584,1.728 0.36,2.52 1.584,3.312 0.936,-1.728 1.368,-3.6 0.576,-5.832 1.512,0.504 1.656,1.008 1.944,2.304 1.44,-2.952 2.16,-4.176 1.656,-7.488 0.936,0.792 1.08,1.152 1.368,2.303 1.008,-1.511 1.44,-3.167 1.584,-5.615 0.72,0.432 0.936,1.008 0.936,2.088 1.152,-2.664 1.8,-5.832 1.44,-9.864 0.36,0.36 0.792,0.72 1.152,1.152 0.504,-3.6 0.648,-6.48 -0.504,-10.296 0.432,0.144 0.864,0.072 1.368,0.504 0.288,-2.664 -1.152,-6.264 -2.376,-8.208 0.576,-0.144 1.44,0.144 1.656,0.648 -1.08,-3.888 -2.16,-7.056 -7.128,-8.64 0.144,-2.592 -1.944,-4.824 -3.816,-7.056 -0.288,3.527 -1.008,6.048 -2.664,8.496 -2.232,-2.736 -5.688,-2.448 -7.704,-1.728 1.512,0.936 3.024,2.376 3.24,4.536 -3.888,2.952 -6.192,5.112 -10.008,7.992 -5.04,0.576 -7.416,4.608 -5.256,9.432 l 3.816,-2.304 -1.152,2.376 c 4.176,1.008 4.176,0.144 6.552,-2.808 1.512,-1.368 2.808,-0.864 4.032,-0.576 -0.864,6.408 -6.48,9.432 -10.728,12.024 -6.48,3.96 -8.568,9.504 -8.136,14.112 0,0.504 0.072,0.864 0.072,1.296 -2.88,-2.232 -4.68,-3.168 -6.696,-3.024 l -0.504,-35.352 c -2.088,0.792 -4.104,1.44 -6.12,2.016 v 4.464 c 0.432,-0.144 0.864,-0.288 1.296,-0.432 l 0.576,34.92 c -0.576,0.072 -1.224,0.144 -1.872,0.216 v 7.56 c 0.72,0 1.368,0 1.944,0 l 0.216,12.744 c -0.72,0.144 -1.728,1.296 -2.16,0.504 v 10.368 c 0.432,0.072 0.864,0.144 1.296,0.216 -0.36,1.584 -0.792,3.096 -1.296,4.464 z"
           id="path2" /><path
           style="fill:#004557;stroke:none"
           d="m 375.479,245.731 v 2.376 c 0.216,-0.72 0.648,-1.656 0.216,-2.16 -0.072,-0.072 -0.144,-0.144 -0.216,-0.216 z"
           id="path3" /><path
           style="fill:#004557;stroke:none"
           d="m 375.479,193.315 v -4.464 c -14.544,3.888 -27.936,1.368 -39.96,-9.864 v 6.768 c 11.88,11.16 25.344,12.744 39.96,7.56 z"
           id="path4" /><path
           style="fill:#004557;stroke:none"
           d="m 375.479,235.579 v -7.56 c -2.016,0.288 -3.96,0.504 -5.976,0.864 -1.368,0.144 -2.304,1.872 -2.088,2.952 0.72,7.128 1.152,17.856 2.304,21.384 1.296,3.744 3.456,5.328 5.76,5.976 v -10.368 -0.072 c -0.072,-0.216 0,-0.36 0,-0.648 v -2.376 c -0.36,-0.504 -0.72,-0.36 -1.8,0.144 -0.216,-3.168 -0.144,-4.896 -0.288,-8.208 0.36,-1.368 0.648,-1.945 1.872,-2.088 0.072,0 0.144,0 0.216,0 z"
           id="path5" /><path
           style="fill:#004557;stroke:none"
           d="m 375.479,275.755 v -11.88 c -5.904,17.136 -22.967,25.488 -39.96,25.2 v 5.76 c 15.552,0.288 31.248,-6.048 39.96,-19.08 z"
           id="path6" /><path
           style="fill:#004557;stroke:none"
           d="m 335.519,185.755 v -6.768 c -0.36,-0.288 -0.72,-0.648 -1.007,-0.936 -11.593,11.808 -24.265,16.056 -38.089,12.888 v 4.32 c 13.968,4.896 26.784,1.439 38.232,-10.296 0.288,0.288 0.576,0.504 0.864,0.792 z"
           id="path7" /><path
           style="fill:#004557;stroke:none"
           d="m 335.519,294.835 v -5.76 c -16.776,-0.36 -33.408,-9.144 -39.096,-26.281 v 12.096 c 8.568,12.961 23.76,19.657 39.096,19.945 z"
           id="path8" /><path
           style="fill:#004557;stroke:none"
           d="m 296.423,250.339 v 10.296 c 2.592,-0.576 5.256,-2.16 6.48,-6.408 1.008,-3.601 1.008,-14.4 1.368,-21.529 0.216,-1.079 -0.792,-2.735 -2.16,-2.808 -1.872,-0.287 -3.816,-0.431 -5.688,-0.575 v 7.488 c 0.072,0 0.144,0 0.216,0 1.224,0.072 1.512,0.72 1.945,2.014 0,3.314 0.143,4.97 0.071,8.21 -1.224,-0.504 -1.583,-0.648 -2.016,0.144 -0.504,0.719 0.433,2.016 0.361,2.808 -0.145,0.288 -0.361,0.432 -0.577,0.36 z"
           id="path9" /><path
           style="fill:#004557;stroke:none"
           d="m 296.423,195.259 v -4.32 c -2.592,-0.576 -5.112,-1.44 -7.704,-2.52 l 0.36,34.128 c -1.728,0.576 -3.6,1.944 -6.408,4.247 0,-0.359 0,-0.647 0,-1.079 0.288,-4.68 -2.087,-10.08 -8.712,-13.752 -4.392,-2.448 -10.08,-5.184 -11.16,-11.592 1.152,-0.36 2.448,-0.864 4.032,0.432 2.448,2.88 2.448,3.672 6.624,2.52 l -1.224,-2.304 3.889,2.16 c 1.943,-4.968 -0.577,-8.928 -5.617,-9.289 -3.96,-2.663 -6.407,-4.751 -10.368,-7.487 0.144,-2.16 1.584,-3.672 3.024,-4.681 -2.015,-0.647 -5.472,-0.791 -7.632,2.089 -1.728,-2.448 -2.592,-4.969 -3.024,-8.424 -1.728,2.304 -3.744,4.608 -3.456,7.128 -4.968,1.872 -5.832,5.112 -6.768,9 0.144,-0.504 1.008,-0.793 1.656,-0.721 -1.152,2.017 -2.52,5.617 -2.016,8.353 0.432,-0.504 0.864,-0.432 1.296,-0.576 -1.008,3.816 -0.72,6.696 -0.072,10.295 0.36,-0.431 0.792,-0.863 1.08,-1.223 -0.144,4.031 0.648,7.199 1.8,9.792 0,-1.08 0.216,-1.656 0.864,-2.16 0.288,2.519 0.864,4.104 1.872,5.615 0.216,-1.223 0.36,-1.511 1.296,-2.375 -0.36,3.312 0.36,4.536 1.944,7.416 0.216,-1.368 0.36,-1.8 1.8,-2.448 -0.648,2.375 -0.144,4.176 0.864,5.832 1.224,-0.864 -0.072,-1.584 1.44,-3.312 1.008,5.184 -0.648,9.719 -6.408,12.384 -8.064,3.744 -13.392,7.992 -15.048,12.888 -3.384,-0.288 -1.656,-9.072 -0.936,-10.872 2.736,-6.984 6.552,-9.936 5.976,-17.784 -0.36,1.368 -1.152,1.223 -1.584,2.16 1.44,-1.872 1.872,-6.408 1.656,-9.432 -0.432,1.44 -0.576,1.08 -1.44,2.447 1.368,-5.255 -0.576,-8.495 1.152,-13.967 -4.392,4.104 -7.776,9.504 -7.992,16.56 0.144,0.072 -0.792,-0.504 -1.152,-1.728 -1.584,6.984 1.872,15.912 0.072,22.176 -1.152,4.392 -1.512,6.48 0,10.584 0.504,1.224 1.584,2.303 2.088,3.528 0.576,9.432 1.512,10.799 7.848,16.344 1.8,2.736 1.656,2.592 0.216,6.048 4.896,8.496 9.936,16.92 15.84,24.84 -0.288,1.08 -1.368,2.16 -1.008,3.528 0.504,0.864 2.016,0.936 2.952,1.512 0.216,0.144 0.432,0.431 0.576,0.792 -0.144,1.512 -0.36,3.024 -0.576,4.68 4.464,-1.152 10.297,1.512 11.088,0.216 0.288,-0.144 0.36,-0.504 0.288,-1.008 -0.864,-3.384 -3.168,-6.12 -7.992,-7.776 -2.448,-7.488 -4.824,-14.976 -7.2,-22.464 0.072,-1.081 -0.504,-2.304 0,-4.176 3.24,4.176 7.128,6.263 12.096,6.624 6.553,0.504 13.104,1.152 14.76,3.744 -0.072,1.296 -2.231,4.823 -0.072,3.816 1.08,-1.008 2.305,-0.864 3.384,-0.576 0.433,1.439 -0.648,3.096 -1.151,4.032 1.151,2.376 6.695,2.952 9.431,4.464 0.936,-4.896 -0.288,-8.496 -1.943,-11.952 -5.185,-6.264 -14.113,-8.496 -23.185,-11.376 -1.152,-0.504 -1.296,-1.442 -0.864,-2.232 3.384,-7.632 4.104,-14.185 -1.367,-19.512 4.895,-2.16 9.431,-5.04 12.815,-9.216 1.368,-1.728 2.304,-3.384 3.024,-5.616 2.88,-0.793 5.113,-1.584 7.776,-2.16 l 0.144,13.032 c 0.072,9.72 2.736,17.784 7.056,24.335 v -12.096 c -0.288,-0.647 -0.504,-1.367 -0.648,-2.087 0.216,0 0.432,-0.072 0.648,-0.072 v -10.296 c -0.72,-0.072 -1.728,-1.152 -2.16,-0.576 l -0.143,-12.888 c 0.719,0 1.44,-0.072 2.303,-0.072 v -7.488 c -0.791,-0.072 -1.584,-0.072 -2.375,-0.144 v -0.072 l -0.361,-34.848 c 0.936,0.36 1.8,0.72 2.736,1.008 z"
           id="path10" /><g
           id="g12"><path
             style="fill:#004557;stroke:#004557;stroke-width:1"
             d="m 441.431,298.219 v -1.728 c -0.36,-3.745 -3.24,-6.192 -8.352,-5.976 -9.792,0.36 -10.224,9.216 -12.96,15.408 -3.168,4.248 -7.56,7.2 -13.464,5.112 -3.744,-1.728 -5.256,-3.888 -6.192,-8.136 -0.936,-4.321 -3.528,-7.56 -6.48,-9.144 0.36,-1.009 3.744,-3.6 3.744,-3.6 2.304,-0.936 4.32,-1.224 6.48,-1.08 1.872,0.36 2.88,1.152 3.312,2.232 0.216,1.8 0.144,3.24 -0.648,4.319 -1.296,1.081 -2.808,0.649 -4.464,0.216 0.36,4.392 2.808,6.409 7.2,6.121 3.744,-1.008 4.608,-3.744 4.608,-6.552 -0.432,-3.744 -2.52,-5.4 -4.968,-6.696 14.832,-2.017 6.696,-13.104 0.216,-6.12 4.824,-0.432 2.664,3.528 0.144,4.247 -0.864,0.289 -2.88,1.009 -4.464,0.937 1.08,-1.009 0.144,-1.872 -1.368,-2.448 -0.648,-0.648 2.232,-1.801 3.888,-2.232 -1.368,-0.216 -3.456,-0.36 -5.472,0.791 -0.792,0.793 -1.08,1.153 -1.08,2.017 0.504,0.791 1.44,0.504 2.16,0.935 0.072,0.361 0,0.505 -0.432,0.793 -0.864,-0.072 -1.512,-0.072 -2.16,0.144 1.368,-3.096 -2.952,-3.312 -4.392,-0.792 1.008,-0.433 3.456,-0.648 2.232,0.936 -2.376,1.871 -5.4,4.176 -7.344,6.84 -0.792,0.504 -11.016,5.328 -11.808,5.616 -0.432,0.144 -0.864,0.576 -1.152,1.08 -0.72,0.504 -1.44,1.008 -2.16,1.512 2.448,-3.096 4.176,-7.273 5.04,-12.024 -7.488,7.992 -12.024,7.559 -16.992,8.568 3.888,-1.44 9.36,-3.673 12.024,-6.913 10.368,-14.976 9.432,-16.631 26.928,-21.744 -14.76,-3.023 -28.368,-1.439 -35.496,21.888 -1.512,3.385 -4.176,4.393 -6.84,4.033 10.944,-3.456 4.32,-15.12 -3.816,-3.744 3.672,-2.593 5.4,-0.145 1.224,2.16 -2.16,1.008 -3.6,0.647 -5.615,0.072 1.943,-0.72 1.007,-2.16 2.879,-2.16 -1.008,-0.505 -2.304,-0.29 -4.032,1.512 0.432,-1.224 -0.576,-1.512 -1.944,-1.224 0.504,0.504 0.864,1.08 0.072,1.656 -1.439,-0.648 -7.992,-2.592 -11.592,6.048 -0.072,0.288 -0.216,1.008 -0.288,1.728 -0.144,-0.72 -0.288,-1.44 -0.432,-1.872 -0.144,-0.288 -0.288,-0.648 -0.432,-0.936 v 3.456 c 0.216,0.504 0.504,0.936 0.793,1.367 0,0.073 0,0.145 0,0.289 0.071,-0.072 0.071,-0.144 0.143,-0.144 v 0 -0.072 c 2.304,-3.6 3.816,-8.856 8.712,-8.424 4.752,0.864 1.008,6.984 -2.088,2.52 -3.816,5.471 2.664,11.16 8.424,4.896 5.544,3.599 10.368,4.752 14.4,4.248 -10.368,5.327 -20.448,7.703 -30.384,7.776 v 21.168 c 19.368,-0.432 38.304,-7.272 53.928,-18.072 4.104,1.944 8.424,2.52 12.816,2.376 8.28,-0.432 14.976,-4.968 18.288,-13.753 1.224,-3.168 1.8,-6.407 3.384,-9.287 1.656,-1.008 3.168,-0.864 4.752,0.143 3.744,3.673 -1.584,6.769 -5.4,5.976 4.824,5.545 12.6,2.665 12.168,-3.959 -0.648,-3.312 -3.528,-4.176 -6.768,-4.681 6.192,-4.175 10.656,1.873 9.504,8.137 1.224,-2.016 1.872,-4.032 2.016,-5.76 z"
             id="path11" /><path
             style="fill:#004557;stroke:#004557;stroke-width:1"
             d="m 336.743,303.475 v -3.456 c -4.104,-7.273 -10.08,-5.256 -11.376,-4.537 -0.864,-0.575 -0.576,-1.151 0,-1.655 -1.44,-0.216 -2.376,0.144 -1.872,1.296 -1.872,-1.728 -3.168,-1.8 -4.176,-1.296 1.872,-0.072 1.008,1.368 2.952,2.088 -1.944,0.648 -3.312,1.08 -5.616,0.144 -4.248,-2.088 -2.664,-4.608 1.152,-2.232 -8.64,-10.944 -14.687,1.008 -3.6,3.96 -2.664,0.432 -5.4,-0.36 -7.056,-3.672 -8.136,-22.968 -21.888,-23.976 -36.432,-20.232 17.712,4.392 16.92,6.048 27.936,20.52 3.6,3.96 8.352,5.039 12.24,6.264 -4.895,-0.792 -9.432,-0.072 -17.28,-7.777 1.44,6.265 4.32,11.449 8.424,14.257 -1.152,-0.576 -2.376,-1.152 -3.527,-1.728 0.359,-1.368 -0.649,-2.736 -1.657,-3.096 -0.792,-0.216 -11.232,-4.608 -12.096,-5.04 -2.016,-2.592 -5.112,-4.681 -7.632,-6.48 -1.296,-1.584 1.152,-1.512 2.232,-1.009 -1.656,-2.447 -5.976,-2.015 -4.32,1.009 -0.792,-0.216 -1.44,-0.144 -2.304,-0.072 -0.36,-0.216 -0.432,-0.36 -0.36,-0.792 0.649,-0.504 1.584,-0.217 2.016,-1.008 0.072,-0.864 -0.36,-1.224 -1.152,-1.944 -2.016,-1.152 -4.176,-0.864 -5.472,-0.504 1.656,0.287 4.608,1.296 4.032,2.016 -1.584,0.648 -2.448,1.584 -1.296,2.52 -1.584,0.144 -3.6,-0.504 -4.536,-0.72 -2.448,-0.649 -4.895,-4.536 -0.072,-4.32 -6.768,-6.624 -14.4,4.824 0.504,6.192 -2.303,1.296 -4.392,3.168 -4.608,6.912 0.144,2.807 1.44,5.256 5.04,6.192 4.32,0.144 6.696,-2.016 6.768,-6.336 -1.584,0.503 -3.096,1.008 -4.464,0 -0.792,-1.081 -0.936,-2.52 -0.792,-4.32 0.361,-1.152 1.296,-1.945 3.169,-2.376 2.087,-0.216 4.247,-0.072 6.479,0.72 0.072,0.072 3.528,2.376 3.96,3.456 -2.879,1.728 -5.4,5.111 -6.12,9.432 -2.735,11.736 -13.464,11.591 -19.44,4.032 -2.952,-6.048 -3.816,-14.904 -13.68,-14.76 -5.112,0.072 -7.92,2.664 -8.064,6.407 v 0.649 c 0.072,2.016 0.864,4.32 2.376,6.696 -1.368,-6.264 2.736,-12.456 9.144,-8.641 -3.24,0.649 -6.048,1.656 -6.552,5.041 0,6.552 7.848,9.144 12.312,3.312 -3.744,1.008 -9.216,-1.8 -5.688,-5.616 1.512,-1.154 3.168,-1.369 4.752,-0.432 1.8,2.808 2.52,5.976 3.888,9.144 3.744,8.568 10.657,12.816 18.936,12.816 4.248,-0.072 8.424,-0.792 12.312,-2.952 16.056,11.304 33.481,15.912 50.616,15.552 v -21.168 c -10.224,0 -20.231,-2.449 -30.456,-6.84 4.464,1.152 9.936,-0.072 16.2,-4.537 6.12,5.904 12.312,-0.072 8.208,-5.327 -2.88,4.608 -6.912,-1.296 -2.159,-2.448 4.247,-0.504 6.119,3.384 8.207,6.696 z"
             id="path12" /></g><path
           style="fill:#ffffff;stroke:none"
           d="m 283.247,228.955 c 1.944,0 3.888,0.072 5.832,0.072 l -0.072,-4.176 c -2.232,1.08 -4.032,2.591 -5.76,4.104 z"
           id="path13" /><g
           id="g17"><path
             style="fill:#004557;stroke:none"
             d="m 335.231,231.763 v 5.184 h 11.305 v -5.184 z"
             id="path14" /><path
             style="fill:#004557;stroke:none"
             d="m 335.231,200.011 v 4.896 h 6.336 v 23.832 h 4.896 v -7.2 h 3.672 v -4.32 h -3.816 v -5.184 h 3.672 v -4.464 h -3.744 v -7.56 z"
             id="path15" /><path
             style="fill:#004557;stroke:none"
             d="m 335.231,204.907 v -4.896 h -11.448 v 4.896 z"
             id="path16" /><path
             style="fill:#004557;stroke:none"
             d="m 335.231,236.947 v -5.184 h -6.408 v -24.192 h -4.968 v 29.376 z"
             id="path17" /></g><path
           style="fill:#004557;stroke:none"
           d="m 348.623,241.987 3.024,-3.313 c 4.536,4.177 7.416,10.009 7.416,16.489 0,12.528 -10.656,22.752 -23.688,22.752 -13.032,0 -23.688,-10.224 -23.688,-22.752 0,-6.264 2.664,-11.952 6.984,-16.056 l 3.168,3.24 c -3.384,3.384 -5.472,7.848 -5.472,12.816 0,10.08 8.496,18.288 19.008,18.288 10.512,0 19.008,-8.208 19.008,-18.288 0,-5.112 -2.16,-9.792 -5.76,-13.176 z"
           id="path18" /><g
           id="g27"><path
             style="fill:#004557;stroke:none"
             d="m 345.455,313.339 v 1.368 c 0.72,-0.072 1.368,-0.288 1.8,-0.72 0.432,-0.505 0.648,-1.152 0.648,-1.944 0,-0.72 -0.144,-1.226 -0.504,-1.656 -0.432,-0.432 -0.863,-0.648 -1.512,-0.648 -0.144,0 -0.288,0 -0.432,0.072 v 1.152 0 0 c 0.288,0 0.504,0.072 0.648,0.288 0.216,0.216 0.288,0.504 0.288,0.864 0,0.36 -0.072,0.648 -0.288,0.864 -0.144,0.216 -0.36,0.36 -0.648,0.36 z"
             id="path19" /><path
             style="fill:#004557;stroke:none"
             d="m 345.455,307.219 v 1.296 c 0.144,0 0.288,0.072 0.432,0.144 0.072,0.144 0.144,0.288 0.216,0.504 h 1.584 c 0,-0.576 -0.216,-1.08 -0.648,-1.441 -0.36,-0.359 -0.936,-0.503 -1.584,-0.503 z"
             id="path20" /><path
             style="fill:#004557;stroke:none"
             d="m 345.455,308.515 v -1.296 0 c -0.864,0 -1.512,0.359 -2.016,1.008 -0.432,0.648 -0.72,1.584 -0.72,2.736 0,1.224 0.288,2.088 0.72,2.735 0.432,0.649 1.08,1.009 1.944,1.009 0,0 0,0 0.072,0 v -1.368 0 c -0.36,0 -0.576,-0.072 -0.72,-0.288 -0.216,-0.216 -0.288,-0.504 -0.288,-0.864 0,-0.36 0.072,-0.648 0.288,-0.936 0.144,-0.216 0.432,-0.288 0.72,-0.288 v -1.152 c -0.144,0 -0.288,0.072 -0.431,0.144 -0.217,0.144 -0.433,0.36 -0.649,0.647 v -0.144 c 0,-0.647 0.072,-1.151 0.216,-1.511 0.216,-0.288 0.433,-0.432 0.792,-0.432 z"
             id="path21" /><path
             style="fill:#004557;stroke:none"
             d="m 338.831,311.755 v 1.368 h 0.936 v 1.44 h 1.584 v -1.44 h 0.936 v -1.368 h -0.936 v -4.464 h -1.944 l -0.576,0.936 v 2.088 l 0.936,-1.44 v 2.88 z"
             id="path22" /><path
             style="fill:#004557;stroke:none"
             d="m 338.831,310.315 v -2.088 l -2.016,3.168 v 1.728 h 2.016 v -1.368 h -0.864 z"
             id="path23" /><path
             style="fill:#004557;stroke:none"
             d="m 333.575,313.411 v 1.296 c 0.864,-0.072 1.512,-0.36 1.944,-0.937 0.505,-0.647 0.72,-1.583 0.72,-2.807 0,-1.224 -0.215,-2.16 -0.648,-2.808 -0.432,-0.649 -1.152,-0.936 -2.016,-0.936 v 0 1.296 0 c 0.288,0 0.504,0.072 0.648,0.288 0.144,0.144 0.289,0.431 0.289,0.792 0,0.36 -0.073,0.576 -0.289,0.792 -0.144,0.215 -0.36,0.287 -0.648,0.287 v 0 1.225 c 0.072,-0.072 0.216,-0.072 0.36,-0.144 0.216,-0.144 0.432,-0.288 0.648,-0.576 0,0.072 0,0.072 0,0.144 0,0.072 0,0.144 0,0.144 0,0.648 -0.071,1.152 -0.216,1.44 -0.216,0.36 -0.504,0.504 -0.792,0.504 z"
             id="path24" /><path
             style="fill:#004557;stroke:none"
             d="m 327.527,314.563 v -5.329 c -0.144,0.145 -0.36,0.289 -0.648,0.433 -0.216,0.144 -0.504,0.288 -0.792,0.432 v -1.657 c 0.288,-0.071 0.576,-0.215 0.864,-0.431 0.288,-0.217 0.576,-0.433 0.864,-0.72 h 1.368 v 7.272 z"
             id="path25" /><path
             style="fill:#004557;stroke:none"
             d="m 333.575,308.515 v -1.296 c -0.792,0 -1.368,0.216 -1.872,0.647 -0.432,0.433 -0.648,1.081 -0.648,1.801 0,0.72 0.144,1.223 0.576,1.656 0.36,0.432 0.792,0.648 1.369,0.648 0.215,0 0.359,-0.072 0.575,-0.072 v -1.225 c -0.288,0 -0.503,-0.072 -0.72,-0.287 -0.144,-0.216 -0.216,-0.432 -0.216,-0.792 v 0 c 0,-0.288 0.072,-0.576 0.216,-0.792 0.217,-0.216 0.432,-0.288 0.72,-0.288 z"
             id="path26" /><path
             style="fill:#004557;stroke:none"
             d="m 333.575,314.707 v -1.296 h -0.072 c -0.216,0 -0.36,-0.072 -0.503,-0.216 -0.145,-0.072 -0.217,-0.288 -0.217,-0.432 h -1.656 c 0,0.576 0.216,1.079 0.648,1.44 0.36,0.288 0.936,0.504 1.656,0.504 0.072,0 0.072,0 0.144,0 z"
             id="path27" /></g><path
           style="fill:#ffffff;stroke:#004557;stroke-width:1"
           d="m 389.087,317.803 c -34.056,24.048 -71.784,22.32 -101.592,2.808 5.256,-4.105 8.424,-8.928 10.584,-14.112 26.28,15.12 54.36,14.472 79.92,-2.808 2.376,5.256 5.688,10.079 11.088,14.112 z"
           id="path28" /><path
           style="fill:#ffffff;stroke:none"
           d="m 282.671,274.674 c 3.961,0.937 7.632,2.017 9.937,4.105 2.159,2.16 0.287,2.736 -1.081,2.16 -2.664,-2.88 -5.112,-4.464 -8.856,-6.265 z"
           id="path29" /><path
           style="fill:#ffffff;stroke:none"
           d="m 295.847,285.547 c 2.088,3.6 4.104,6.768 6.768,8.352 2.736,1.44 2.664,-0.504 1.8,-1.656 -3.528,-1.728 -5.76,-3.6 -8.568,-6.696 z"
           id="path30" /><path
           style="fill:#ffffff;stroke:none"
           d="m 324,300.811 c 1.439,1.44 3.383,2.16 6.479,1.944 -2.232,4.103 -6.192,1.656 -6.479,-1.944 z"
           id="path31" /><path
           style="fill:#ffffff;stroke:none"
           d="m 314.351,296.419 c -4.824,-0.216 -5.976,-7.344 -0.648,-5.185 -3.672,0.793 -0.792,3.817 0.648,5.185 z"
           id="path32" /><path
           style="fill:#ffffff;stroke:none"
           d="m 298.151,298.147 c 7.992,5.472 16.2,5.976 24.768,0.719 -6.696,10.945 -19.008,11.233 -24.768,-0.719 z"
           id="path33" /><path
           style="fill:#004557;stroke:none"
           d="m 302.255,301.963 c 6.192,2.376 12.024,2.519 17.208,0 -7.56,5.472 -10.296,4.752 -17.208,0 z"
           id="path34" /><path
           style="fill:#ffffff;stroke:none"
           d="m 267.048,293.611 c -6.409,4.752 -1.873,13.032 5.183,7.56 -5.832,-0.072 -7.488,-2.305 -5.183,-7.56 z"
           id="path35" /><path
           style="fill:#ffffff;stroke:none"
           d="m 262.943,285.331 c -3.816,-0.36 -4.176,1.872 -1.296,4.535 -0.792,-2.591 -0.36,-3.743 1.296,-4.535 z"
           id="path36" /><path
           style="fill:#004557;stroke:none"
           d="m 275.687,298.075 c 0.072,-0.432 0.576,-1.008 1.08,-0.792 0.865,-0.216 1.44,0.288 1.44,1.152 0,0.792 -0.792,1.08 -1.44,1.08 -1.224,0.36 -2.736,-2.088 -1.944,-2.88 0.144,0.792 0.072,1.296 0.864,1.44 z"
           id="path37" /><path
           style="fill:#004557;stroke:none"
           d="m 272.303,306.858 c 3.456,0.648 0.072,4.897 -1.728,1.945 -1.152,-2.088 2.952,-3.528 3.456,-5.472 0.505,1.8 -1.944,2.664 -1.728,3.527 z"
           id="path38" /><path
           style="fill:#ffffff;stroke:none"
           d="m 391.175,272.155 c -3.96,1.152 -7.56,2.375 -9.72,4.536 -2.088,2.376 -0.144,2.808 1.152,2.16 2.592,-3.024 4.824,-4.752 8.568,-6.696 z"
           id="path39" /><path
           style="fill:#ffffff;stroke:none"
           d="m 378.503,283.602 c -1.872,3.673 -3.744,7.057 -6.336,8.713 -2.664,1.656 -2.736,-0.36 -1.8,-1.512 3.384,-1.945 5.472,-3.888 8.136,-7.201 z"
           id="path40" /><path
           style="fill:#ffffff;stroke:none"
           d="m 351.071,300.307 c -1.368,1.51 -3.24,2.304 -6.336,2.232 2.376,3.96 6.265,1.368 6.336,-2.232 z"
           id="path41" /><path
           style="fill:#ffffff;stroke:none"
           d="m 360.431,295.411 c 4.824,-0.432 5.688,-7.632 0.432,-5.184 3.744,0.648 1.008,3.816 -0.432,5.184 z"
           id="path42" /><path
           style="fill:#ffffff;stroke:none"
           d="m 376.847,296.347 c -7.847,5.904 -16.056,6.768 -24.768,2.016 7.2,10.584 19.584,10.224 24.768,-2.016 z"
           id="path43" /><path
           style="fill:#004557;stroke:none"
           d="m 372.959,300.307 c -6.12,2.664 -11.952,3.168 -17.28,0.864 7.848,5.112 10.512,4.32 17.28,-0.864 z"
           id="path44" /><path
           style="fill:#ffffff;stroke:none"
           d="m 408.743,290.299 c 6.696,4.32 2.448,12.816 -4.752,7.776 5.76,-0.36 7.344,-2.736 4.752,-7.776 z"
           id="path45" /><path
           style="fill:#ffffff;stroke:none"
           d="m 412.487,281.803 c 3.744,-0.648 4.176,1.584 1.44,4.464 0.72,-2.665 0.144,-3.744 -1.44,-4.464 z"
           id="path46" /><path
           style="fill:#004557;stroke:none"
           d="m 400.391,295.051 c -0.144,-0.432 -0.648,-0.864 -1.152,-0.72 -0.936,-0.072 -1.512,0.36 -1.512,1.223 0.144,0.793 0.936,1.081 1.584,1.081 1.296,0.288 2.592,-2.304 1.8,-3.024 -0.072,0.792 0,1.296 -0.72,1.44 z"
           id="path47" /><path
           style="fill:#004557;stroke:none"
           d="m 404.207,303.691 c -3.456,0.863 0.144,4.896 1.728,1.872 1.008,-2.088 -3.096,-3.384 -3.744,-5.329 -0.432,1.873 2.16,2.593 2.016,3.457 z"
           id="path48" /><path
           style="fill:#004557;stroke:none"
           d="m 353.447,306.067 c 1.512,1.944 3.24,2.664 5.76,3.167 -3.024,1.44 -5.183,0.217 -5.76,-3.167 z"
           id="path49" /><path
           style="fill:#004557;stroke:none"
           d="m 321.911,306.643 c -1.368,2.016 -3.096,2.88 -5.544,3.456 3.096,1.368 5.184,-0.072 5.544,-3.456 z"
           id="path50" /><path
           style="fill:#ffffff;stroke:none"
           d="m 281.375,299.011 c 0.649,-0.648 1.296,-0.936 2.088,-0.792 4.248,1.728 8.424,3.527 12.6,5.328 0.792,0.792 0.792,1.656 0.216,3.024 -4.176,7.199 -6.623,11.52 -12.384,14.328 -7.632,3.744 -20.16,2.736 -27.144,-8.496 4.104,5.616 16.776,8.568 20.736,-5.112 1.152,-4.176 1.8,-5.832 3.888,-8.28 z"
           id="path51" /><path
           style="fill:#ffffff;stroke:none"
           d="m 394.703,296.347 c -0.576,-0.577 -1.296,-0.649 -2.088,-0.36 -4.104,2.088 -8.136,4.247 -12.168,6.336 -0.72,0.72 -0.72,1.656 0.072,2.808 4.536,6.984 7.416,11.232 13.392,13.536 7.848,3.168 20.304,1.223 26.424,-10.512 -3.816,5.832 -17.64,9.287 -21.528,-3.673 -1.224,-3.959 -1.8,-5.471 -4.104,-8.135 z"
           id="path52" /><path
           style="fill:#ffffff;stroke:none"
           d="m 255.383,275.467 c 2.665,3.96 7.056,6.984 13.321,6.767 4.751,0.577 9.503,1.512 13.823,4.392 0.288,0.577 0.432,1.369 0.288,2.161 -0.216,0.576 0,0.719 0.721,0.432 0.719,-0.144 1.439,-0.144 2.231,-0.216 0.36,0.144 0.648,0.36 0.936,0.719 -0.216,1.512 -0.432,3.024 -0.576,4.537 -0.36,0.648 -0.144,1.08 0.576,1.223 1.297,0.36 2.592,0.649 3.96,1.009 0.72,0.432 1.008,0.216 0.864,-0.793 -0.576,-3.311 -1.44,-6.623 -3.744,-9 -2.232,-2.735 -11.448,-6.12 -16.488,-7.631 -6.408,-1.008 -6.984,-3.024 -6.624,-3.6 3.096,-8.424 4.968,-15.192 -1.368,-20.016 -1.152,0.504 -2.376,0.936 -3.599,1.295 0.719,7.201 -0.505,13.393 -4.321,18.721 z"
           id="path53" /><path
           style="fill:#ffffff;stroke:none"
           d="m 418.175,272.515 c -2.376,4.032 -6.696,7.2 -13.176,7.272 -4.68,0.791 -9.36,1.944 -13.536,4.968 -0.288,0.648 -0.36,1.368 -0.216,2.16 0.216,0.576 0,0.72 -0.72,0.504 -0.72,-0.072 -1.44,-0.072 -2.232,-0.144 -0.36,0.144 -0.648,0.432 -0.864,0.792 0.216,1.439 0.504,2.952 0.72,4.463 0.36,0.649 0.216,1.153 -0.504,1.297 -1.296,0.36 -2.592,0.72 -3.888,1.152 -0.72,0.432 -1.008,0.216 -0.936,-0.72 0.432,-3.384 1.152,-6.696 3.312,-9.216 2.16,-2.809 11.232,-6.624 16.2,-8.28 6.408,-1.296 6.84,-3.312 6.48,-3.888 -3.456,-8.352 -5.616,-15.048 0.648,-20.017 1.152,0.433 2.376,0.792 3.528,1.153 -0.432,7.128 1.008,13.536 5.184,18.504 z"
           id="path54" /><path
           style="fill:#ffffff;stroke:none"
           d="m 417.455,176.467 c -0.432,2.448 -1.368,4.68 -3.024,6.624 -1.44,-1.656 -2.808,-3.096 -4.464,-2.592 1.224,1.152 1.512,2.52 1.872,3.816 -3.816,2.952 -7.632,5.904 -11.52,8.928 -3.672,0.36 -5.112,2.592 -4.896,5.184 1.584,-1.224 3.168,-2.304 4.68,-3.384 1.296,0.216 1.08,0.216 0.72,1.44 -0.432,0.936 -0.936,1.872 -1.368,2.88 0.36,-0.144 0.72,-0.072 1.008,-0.072 3.168,-2.593 4.392,-4.032 8.64,-3.312 3.744,0.791 5.328,0.288 10.656,-3.6 0.216,0.576 0.432,1.08 0.648,1.584 -3.888,2.807 -6.264,4.032 -11.232,4.176 -0.504,1.512 -0.936,3.024 -1.44,4.607 -1.008,2.089 -4.032,5.185 -8.712,7.705 -5.472,2.952 -9.864,8.856 -7.92,16.776 0.72,0 1.44,-0.072 2.16,-0.072 3.024,-4.392 4.248,-4.896 9.36,-6.912 0.072,0.647 0.144,1.296 0.216,1.944 -4.68,1.439 -5.616,2.664 -8.208,6.768 -4.824,0.216 -9.648,0.36 -14.472,0.576 -2.304,0.143 -4.68,0.359 -6.984,0.432 -1.008,0.144 -2.088,0.36 -3.168,0.504 -0.864,0.288 -1.007,1.08 -0.936,1.584 0.288,6.766 0.792,13.176 1.8,19.512 0.864,3.168 4.176,6.48 5.256,5.76 0.936,-0.721 0.864,-6.264 0.072,-6.264 -1.08,-0.072 -1.152,1.44 -2.232,0.792 -0.648,-1.368 0.432,-3.6 -0.216,-3.816 -0.504,-0.072 -0.864,0.936 -1.512,-0.145 -0.216,-3.815 -0.432,-7.631 -0.576,-11.448 0.432,-1.223 1.152,-1.584 1.872,-1.799 8.064,-2.304 12.168,0.215 19.944,2.088 7.632,1.8 12.312,2.808 19.368,-2.448 0.648,0.36 1.224,0.792 1.8,1.224 -6.624,5.256 -10.368,5.832 -21.312,3.672 0.576,3.528 11.664,11.591 20.664,12.744 1.08,-2.952 2.664,-5.4 4.968,-6.84 0.216,0.72 0.504,1.44 0.648,2.232 -2.232,1.944 -2.448,3.024 -3.744,5.472 -1.944,5.688 -0.72,11.808 2.736,16.488 2.664,3.6 3.744,6.192 1.8,12.672 -1.152,3.672 -2.304,7.344 -3.456,11.016 -0.936,3.096 -1.44,7.992 -2.952,9.36 -3.24,1.584 -4.824,2.303 -6.264,5.255 -0.432,0.793 -0.432,1.297 0.432,1.081 2.304,-0.504 4.392,-0.72 6.264,-0.72 0.72,-0.648 -0.864,-2.52 0.216,-4.464 0.216,-1.224 2.304,-0.72 2.736,-1.512 -0.288,-1.08 -1.44,-1.584 -0.936,-3.313 4.968,-7.991 9.576,-16.271 14.04,-24.839 -0.72,-1.584 -1.872,-2.808 -0.648,-5.041 2.376,-3.024 5.328,-5.904 7.488,-9.144 0.864,-2.736 0.864,-5.399 0.216,-7.991 4.968,-5.544 4.968,-9 2.376,-15.769 -1.728,-4.463 0.144,-8.711 -0.288,-14.687 -0.288,0.864 -0.648,1.296 -1.08,1.512 0.648,-4.752 -1.584,-12.528 -4.68,-15.336 0.72,3.816 0.72,7.272 1.224,10.08 -0.648,-0.288 -0.936,-1.08 -1.512,-1.656 0.144,3.672 1.368,7.488 2.952,11.592 -0.792,-0.649 -1.368,-1.656 -1.944,-2.664 -0.144,1.368 0.216,2.015 0.648,3.168 1.584,2.52 3.024,4.823 4.176,7.704 2.52,6.408 2.592,11.16 -2.088,15.336 -1.728,-5.688 -6.696,-10.584 -12.816,-13.032 -5.184,-2.017 -9.936,-2.233 -10.944,-11.089 -0.504,-4.535 2.088,-5.543 1.008,-8.928 1.08,-0.287 1.8,0.289 2.16,1.801 0.144,-0.936 -0.216,-1.728 -0.648,-2.52 1.584,0 2.304,0.575 2.808,1.368 0.792,-2.304 0.864,-5.256 0.864,-8.28 1.008,0.72 1.512,1.439 1.584,2.52 1.224,-1.152 1.728,-3.168 1.8,-5.904 0.72,0.288 1.008,0.648 1.08,1.296 0.864,-1.008 0.648,-4.536 0.216,-8.568 0.864,0.36 1.08,0.648 1.368,1.224 0.36,-3.24 -0.288,-6.624 -1.44,-9.864 0.576,0.144 0.936,0.576 1.512,0.936 -0.504,-2.592 -1.152,-5.184 -2.952,-7.632 0.36,-0.072 1.224,0.288 1.512,0.503 -1.152,-2.231 -2.736,-3.887 -5.688,-4.535 0.288,-1.152 0.288,-3.384 -1.296,-3.744 z"
           id="path55" /><path
           style="fill:#5c5d5e;stroke:none"
           d="m 409.319,189.571 c 1.152,-1.296 2.16,-1.801 3.096,-2.808 1.224,0 1.368,2.16 0.72,2.16 -1.152,0.576 -4.464,1.943 -3.816,0.648 z"
           id="path56" /><g
           id="g61"><path
             style="fill:#004557;stroke:none"
             d="m 301.391,324.355 v 1.584 c 1.657,0.503 3.96,0.72 5.256,-1.008 0,0 0.576,-0.936 0.072,-1.512 0,0 0.648,0.144 1.08,-0.721 l 3.6,-7.559 -1.944,-0.936 -0.72,1.44 -2.016,-0.936 -0.719,1.44 2.087,0.936 -0.575,1.296 -2.017,-1.008 -0.648,1.44 2.016,0.935 -0.576,1.153 c 0,0 -0.215,0.864 -0.72,0.504 0,0 -1.368,-1.368 -3.384,-2.304 0,0 -0.288,-0.144 -0.792,-0.288 v 1.584 c 0.072,0 0.145,0.072 0.145,0.072 1.943,0.864 3.096,2.375 2.663,3.312 -0.36,0.72 -1.44,0.864 -2.808,0.576 z"
             id="path57" /><path
             style="fill:#004557;stroke:none"
             d="m 301.391,315.355 v 1.728 c 4.104,-0.864 5.688,-3.457 5.688,-3.457 l -5.688,-2.736 v 2.089 l 2.664,1.224 c -0.935,0.576 -1.8,0.936 -2.664,1.152 z"
             id="path58" /><path
             style="fill:#004557;stroke:none"
             d="m 301.391,312.979 v -2.089 l -2.16,-1.007 -0.792,1.728 z"
             id="path59" /><path
             style="fill:#004557;stroke:none"
             d="m 301.391,317.083 v -1.728 c -2.807,0.864 -4.752,0.144 -4.752,0.144 v 0 c 0,0 -1.007,0.072 -1.007,0.792 0.143,0.864 1.079,0.936 1.079,0.936 v 0 c 1.801,0.215 3.385,0.144 4.68,-0.144 z"
             id="path60" /><path
             style="fill:#004557;stroke:none"
             d="m 301.391,320.395 v -1.584 c -1.656,-0.577 -5.472,-1.512 -6.624,0.576 0,0 -0.072,0.215 -0.144,0.648 v 0.36 c 0.072,1.08 0.864,3.024 4.68,4.752 0,0 0.864,0.503 2.088,0.792 v -1.584 c -0.432,-0.072 -0.936,-0.288 -1.44,-0.504 -1.872,-0.864 -3.024,-2.304 -2.52,-3.24 0.36,-0.937 2.16,-1.009 3.96,-0.216 z"
             id="path61" /></g><g
           id="g64"><path
             style="fill:#004557;stroke:none"
             d="m 319.247,329.395 v 1.944 l 5.544,1.512 1.512,-5.544 -0.648,-0.216 c 0,0 0.432,0.143 0.648,-0.649 l 0.793,-3.167 1.151,0.288 c 0,0 0.576,0.144 0.792,-0.721 0,0 0.36,-0.647 -0.36,-0.791 l -1.152,-0.288 0.576,-2.089 -1.944,-0.503 -0.864,3.311 c 0,0 -0.576,1.081 -1.223,0.865 l -4.825,-1.296 v 1.944 l 4.104,1.08 c 0,0 0.649,0.216 1.152,-0.217 0,0 0,1.369 -0.936,1.657 l -4.32,-1.152 v 1.944 l 4.32,1.223 -0.504,1.873 z"
             id="path62" /><path
             style="fill:#004557;stroke:none"
             d="m 319.247,323.995 v -1.944 l -3.024,-0.792 1.08,-3.96 -2.16,-0.577 -1.152,4.393 c 0,0 -0.576,1.296 0.648,1.655 z"
             id="path63" /><path
             style="fill:#004557;stroke:none"
             d="m 319.247,327.307 v -1.944 l -5.328,-1.44 -1.224,4.607 c 0,0 -0.288,1.009 0.792,1.297 l 5.76,1.512 v -1.944 l -4.392,-1.152 0.504,-1.944 z"
             id="path64" /></g><path
           style="fill:#004557;stroke:none"
           d="m 332.279,320.179 h 5.688 c 0,0 0.936,0.072 0.936,0.864 0,0 0,0.792 -0.936,0.792 h -3.6 v 8.712 h 3.888 c 0,0 1.152,0.216 1.224,-0.864 v -9.937 h 2.016 v 4.609 h 1.584 v -4.609 h 2.088 v 12.673 c 0,0 0,1.008 -0.936,1.152 -0.576,0.072 -1.152,-0.432 -1.152,-1.152 l 0.072,-6.48 h -1.656 v 6.48 c 0,0 -0.144,1.08 -1.008,1.08 0,0 -0.936,0.216 -1.008,-1.08 v -0.504 c 0,0 -0.36,0.432 -1.008,0.504 h -4.824 c 0,0 -1.368,0.072 -1.368,-1.08 z"
           id="path65" /><g
           id="g69"><path
             style="fill:#004557;stroke:none"
             d="m 354.024,327.163 v 1.654 l 7.991,-2.158 0.648,2.158 c 0.288,0.938 1.152,0.65 1.152,0.65 0.936,-0.216 0.864,-1.152 0.864,-1.152 l -1.08,-3.744 -0.72,0.216 c 0.504,-0.576 0.216,-1.368 0.216,-1.368 l -0.792,-3.096 0.721,-0.144 c 0.143,-0.072 0.791,-0.289 0.575,-1.152 -0.216,-0.864 -1.08,-0.648 -1.08,-0.648 l -0.72,0.216 -0.72,-2.664 -1.944,0.504 2.016,7.632 c -0.072,1.152 -0.648,1.367 -0.648,1.367 z"
             id="path66" /><path
             style="fill:#004557;stroke:none"
             d="m 354.024,324.858 v 1.801 c 0.503,-0.072 0.791,-0.144 0.791,-0.144 3.96,-1.081 3.816,-4.68 3.816,-4.68 -0.576,-2.089 -2.592,-2.448 -2.592,-2.448 l 1.08,-0.288 c 0.36,-0.072 0.72,-0.36 0.576,-0.936 -0.216,-0.504 -0.936,-0.432 -0.936,-0.432 l -2.735,0.72 v 2.304 c 1.223,-0.144 2.375,0.432 2.591,1.368 0.288,1.08 -0.648,2.232 -2.088,2.664 -0.216,0.071 -0.36,0.071 -0.503,0.071 z"
             id="path67" /><path
             style="fill:#004557;stroke:none"
             d="m 354.024,320.755 v -2.304 l -0.073,0.072 -0.288,-1.081 -2.016,0.505 0.288,1.08 -2.88,0.79 c -0.648,0.146 -0.576,0.794 -0.576,0.794 0.216,0.72 0.864,0.576 0.864,0.576 l 0.936,-0.216 c -1.224,0.936 -0.864,3.096 -0.864,3.096 0.936,2.592 3.312,2.736 4.609,2.592 v -1.801 c -1.297,0.145 -2.377,-0.359 -2.665,-1.367 -0.288,-1.08 0.648,-2.232 2.088,-2.592 0.216,-0.072 0.36,-0.072 0.577,-0.144 z"
             id="path68" /><path
             style="fill:#004557;stroke:none"
             d="m 354.024,328.817 v -1.654 l -3.241,0.864 0.432,1.512 z"
             id="path69" /></g><path
           style="fill:#004557;stroke:none"
           d="m 364.391,313.411 10.296,-4.824 c 0,0 0.936,-0.576 1.656,1.008 l 3.528,7.56 c 0,0 0.648,1.008 0.216,1.656 l 0.216,-0.072 c 0,0 0.864,-0.36 1.152,0.288 0.288,0.647 -0.144,1.152 -0.432,1.368 l -11.16,5.255 -0.863,-1.727 1.943,-0.864 -2.448,-5.184 1.872,-0.864 2.376,5.184 2.16,-1.008 -2.448,-5.184 1.872,-0.864 2.448,5.184 1.08,-0.433 c 0,0 0.864,-0.432 0.288,-1.583 l -3.456,-7.417 -9.36,4.393 z"
           id="path70" /><path
           style="fill:#ffffff;stroke:none"
           d="m 388.079,227.155 c -2.016,0.144 -3.96,0.216 -5.904,0.36 v -3.096 c 0.36,-0.072 0.792,-0.072 1.296,-0.072 1.728,0.792 3.24,1.728 4.608,2.808 z"
           id="path71" /><path
           style="fill:#ffffff;stroke:none"
           d="m 294.048,231.043 c 1.512,0 2.952,0.072 4.391,0.072 1.08,0.144 2.16,0.216 3.24,0.36 0.864,0.288 1.08,1.008 1.008,1.584 0,6.696 -0.288,13.175 -1.008,19.512 -0.72,3.168 -3.96,6.624 -4.968,5.976 -1.008,-0.648 -1.224,-6.192 -0.36,-6.264 1.08,-0.144 1.224,1.367 2.304,0.72 0.504,-1.368 -0.648,-3.6 0,-3.888 0.504,0 0.936,1.008 1.512,-0.072 0.072,-3.888 0.072,-7.704 0.144,-11.52 -0.504,-1.224 -1.224,-1.584 -2.016,-1.729 -1.512,-0.431 -2.952,-0.575 -4.247,-0.647 -1.585,-0.144 -3.169,-0.072 -4.681,0.288 -3.384,0.648 -6.552,2.016 -10.872,3.311 -7.56,2.089 -12.168,3.241 -19.44,-1.655 -0.648,0.432 -1.224,0.792 -1.8,1.296 6.841,4.968 10.656,5.4 21.456,2.808 -0.432,3.527 -11.16,12.024 -20.088,13.608 -1.224,-2.952 -2.952,-5.328 -5.256,-6.696 -0.216,0.792 -0.432,1.512 -0.576,2.304 2.376,1.872 2.592,2.88 3.96,5.256 2.232,5.616 1.224,11.808 -2.016,16.56 -2.52,3.744 -3.528,6.408 -1.224,12.816 1.224,3.6 2.52,7.2 3.816,10.799 1.152,3.097 1.872,7.993 3.384,9.217 3.313,1.44 4.897,2.16 6.481,5.04 0.431,0.791 0.503,1.296 -0.361,1.152 -2.304,-0.505 -4.392,-0.577 -6.336,-0.505 -0.72,-0.647 0.792,-2.591 -0.36,-4.463 -0.288,-1.224 -2.376,-0.648 -2.88,-1.368 0.288,-1.152 1.44,-1.656 0.865,-3.385 -5.329,-7.775 -10.225,-15.911 -15.121,-24.191 0.72,-1.584 1.8,-2.88 0.504,-5.112 -2.52,-2.88 -5.544,-5.616 -7.848,-8.785 -1.008,-2.663 -1.152,-5.399 -0.576,-7.991 -5.184,-5.328 -5.328,-8.784 -3.024,-15.624 1.512,-4.608 -0.504,-8.712 -0.36,-14.76 0.36,0.864 0.72,1.296 1.152,1.512 -0.792,-4.752 1.08,-12.6 4.032,-15.552 -0.576,3.815 -0.432,7.344 -0.792,10.152 0.576,-0.361 0.864,-1.152 1.44,-1.728 0,3.672 -1.08,7.56 -2.52,11.736 0.792,-0.72 1.368,-1.728 1.872,-2.808 0.216,1.438 -0.144,2.088 -0.504,3.24 -1.44,2.592 -2.808,4.968 -3.816,7.92 -2.304,6.48 -2.088,11.231 2.664,15.192 1.512,-5.832 6.264,-10.873 12.312,-13.536 5.04,-2.305 9.792,-2.664 10.44,-11.592 0.36,-4.536 -2.304,-5.4 -1.367,-8.857 -1.153,-0.215 -1.801,0.361 -2.089,1.873 -0.216,-0.864 0.144,-1.729 0.576,-2.52 -1.584,0.072 -2.304,0.647 -2.736,1.44 -0.864,-2.232 -1.152,-5.112 -1.224,-8.208 -1.008,0.72 -1.44,1.511 -1.512,2.592 -1.224,-1.081 -1.872,-3.024 -2.016,-5.832 -0.72,0.36 -1.008,0.72 -1.008,1.296 -0.936,-0.864 -0.864,-4.464 -0.648,-8.497 -0.792,0.433 -1.008,0.649 -1.296,1.297 -0.504,-3.24 0.072,-6.624 1.08,-9.936 -0.648,0.144 -1.008,0.648 -1.512,1.008 0.36,-2.664 0.936,-5.256 2.592,-7.776 -0.36,0 -1.152,0.359 -1.44,0.576 1.08,-2.232 2.52,-3.96 5.472,-4.752 -0.36,-1.08 -0.432,-3.384 1.152,-3.816 0.504,2.448 1.512,4.608 3.312,6.552 1.369,-1.728 2.664,-3.24 4.321,-2.88 -1.153,1.296 -1.369,2.664 -1.657,3.96 3.888,2.808 7.848,5.616 11.808,8.424 3.672,0.216 5.256,2.376 5.112,4.968 -1.584,-1.08 -3.239,-2.16 -4.823,-3.168 -1.225,0.288 -1.009,0.288 -0.649,1.512 0.504,0.863 1.008,1.8 1.512,2.736 -0.36,-0.072 -0.72,-0.072 -1.008,0 -3.312,-2.448 -4.536,-3.888 -8.783,-2.952 -3.745,0.936 -5.257,0.576 -10.801,-3.096 -0.216,0.504 -0.36,1.08 -0.576,1.584 3.96,2.591 6.48,3.744 11.377,3.672 0.575,1.512 1.079,3.024 1.655,4.536 1.08,2.088 4.249,5.04 9,7.344 5.616,2.736 10.225,8.424 8.64,16.416 -0.72,0 -1.439,0 -2.16,0 -3.24,-4.248 -4.392,-4.68 -9.575,-6.48 -0.072,0.648 -0.144,1.296 -0.217,1.944 4.752,1.224 5.76,2.448 8.496,6.408 4.104,0 8.137,0 12.24,0 z"
           id="path72" /><path
           style="fill:#5c5d5e;stroke:none"
           d="m 260.711,192.235 c -1.296,-1.224 -2.232,-1.728 -3.312,-2.592 -1.152,0 -1.224,2.16 -0.576,2.16 1.152,0.432 4.536,1.728 3.888,0.432 z"
           id="path73" /><g
           id="g93"><path
             style="fill:#ffffff;stroke:none"
             d="m 373.319,264.019 -2.16,-0.504 -4.032,0.576 0.288,-1.369 2.664,-0.215 -2.232,-1.512 0.36,-1.297 3.24,2.521 2.16,0.575 z"
             id="path74" /><path
             style="fill:#ffffff;stroke:none"
             d="m 371.231,269.131 -4.536,-2.16 -0.576,1.224 -0.864,-0.432 1.728,-3.672 0.864,0.432 -0.576,1.294 4.536,2.162 z"
             id="path75" /><path
             style="fill:#ffffff;stroke:none"
             d="m 369.215,272.515 -5.112,-3.168 0.648,-1.008 5.112,3.168 z"
             id="path76" /><path
             style="fill:#ffffff;stroke:none"
             d="m 364.463,275.611 0.864,-0.937 0.072,0.072 c 0.288,0.217 0.504,0.289 0.576,0.289 0.216,0.072 0.36,-0.072 0.504,-0.289 0.144,-0.144 0.216,-0.287 0.144,-0.431 0,-0.216 -0.072,-0.36 -0.216,-0.432 -0.216,-0.216 -0.648,-0.144 -1.224,0 l -0.144,0.072 c -0.288,0.072 -0.576,0.216 -0.72,0.216 -0.216,0.072 -0.36,0.144 -0.432,0.144 -0.288,0 -0.576,0 -0.72,0 -0.216,-0.072 -0.432,-0.216 -0.648,-0.36 -0.36,-0.288 -0.576,-0.648 -0.576,-1.08 -0.072,-0.504 0.072,-0.936 0.432,-1.368 0.36,-0.504 0.792,-0.792 1.224,-0.864 0.36,0 0.792,0.072 1.224,0.432 l 0.144,0.072 -0.792,0.936 v 0 c -0.216,-0.144 -0.432,-0.217 -0.576,-0.217 -0.216,-0.072 -0.36,0.073 -0.504,0.217 -0.144,0.144 -0.144,0.288 -0.144,0.432 0,0.144 0.144,0.36 0.288,0.432 0.216,0.216 0.792,0.144 1.44,-0.144 0.216,-0.072 0.432,-0.144 0.504,-0.144 0.432,-0.144 0.792,-0.217 1.08,-0.217 0.216,0 0.576,0.145 0.792,0.289 0.432,0.36 0.72,0.792 0.72,1.224 0,0.432 -0.144,1.008 -0.576,1.512 -0.432,0.504 -0.792,0.792 -1.224,0.792 -0.36,0.072 -0.792,-0.072 -1.296,-0.432 l -0.072,-0.072 c 0,-0.072 -0.072,-0.072 -0.144,-0.144 z"
             id="path77" /><g
             id="g79"><path
               style="fill:#ffffff;stroke:none"
               d="m 360.431,276.475 v 1.944 l 1.512,1.728 0.936,-0.792 -1.584,-1.944 0.36,-0.288 c 0.216,-0.144 0.432,-0.216 0.504,-0.216 0.144,0.072 0.432,0.144 0.576,0.432 0.072,0 0.216,0.144 0.36,0.287 0.36,0.433 0.648,0.721 0.792,0.865 l 1.008,-0.865 c -0.144,-0.143 -0.36,-0.215 -0.504,-0.359 -0.072,-0.072 -0.288,-0.288 -0.432,-0.504 l -0.072,-0.072 c -0.072,-0.072 -0.144,-0.144 -0.144,-0.144 -0.288,-0.36 -0.648,-0.648 -0.864,-0.648 -0.144,-0.072 -0.432,0 -0.72,0.144 0.144,-0.216 0.216,-0.504 0.144,-0.72 0,-0.288 -0.144,-0.577 -0.504,-0.936 -0.36,-0.432 -0.792,-0.72 -1.152,-0.72 -0.072,0 -0.072,0.072 -0.216,0.072 v 1.224 c 0.072,0 0.072,0 0.072,0 0.144,0 0.36,0.144 0.504,0.36 0.216,0.216 0.36,0.432 0.288,0.576 0,0.216 -0.144,0.432 -0.432,0.648 l -0.216,0.144 z"
               id="path78" /><path
               style="fill:#ffffff;stroke:none"
               d="m 360.431,274.963 v -1.224 c -0.288,0.072 -0.648,0.288 -1.08,0.648 l -1.296,1.224 2.376,2.808 v -1.944 l -0.792,-0.936 0.216,-0.216 c 0.216,-0.216 0.432,-0.36 0.576,-0.36 z"
               id="path79" /></g><path
             style="fill:#ffffff;stroke:none"
             d="m 357.983,282.667 -3.096,-5.184 2.736,-1.656 0.504,0.792 -1.656,1.007 0.72,1.225 1.512,-0.936 0.504,0.792 -1.512,0.936 0.864,1.584 1.8,-1.08 0.432,0.792 z"
             id="path80" /><path
             style="fill:#ffffff;stroke:none"
             d="m 354.239,284.539 -4.032,-4.824 1.152,-0.504 1.944,2.52 c 0.288,0.432 0.576,0.72 0.721,1.008 0.215,0.216 0.359,0.432 0.503,0.576 -0.216,-0.288 -0.288,-0.648 -0.432,-0.936 -0.071,-0.36 -0.144,-0.648 -0.216,-0.937 l -0.72,-3.167 1.152,-0.505 1.225,6.12 z"
             id="path81" /><path
             style="fill:#ffffff;stroke:none"
             d="m 350.495,285.835 -1.8,-5.688 1.152,-0.432 1.872,5.76 z"
             id="path82" /><path
             style="fill:#ffffff;stroke:none"
             d="m 344.591,287.419 -1.44,-5.904 1.728,-0.36 1.728,2.808 c 0.288,0.36 0.432,0.648 0.576,1.008 0.216,0.288 0.432,0.576 0.576,0.864 -0.072,-0.216 -0.216,-0.504 -0.288,-0.792 -0.072,-0.216 -0.144,-0.504 -0.216,-0.864 l -0.864,-3.385 1.152,-0.216 1.296,5.833 -1.584,0.359 -1.872,-2.953 c -0.144,-0.215 -0.359,-0.43 -0.504,-0.718 -0.144,-0.36 -0.36,-0.72 -0.576,-1.08 0.072,0.36 0.216,0.648 0.288,0.936 0.072,0.288 0.144,0.575 0.216,0.719 l 0.864,3.457 z"
             id="path83" /><path
             style="fill:#ffffff;stroke:none"
             d="m 342.359,281.587 0.36,3.816 c 0.072,0.864 -0.072,1.439 -0.36,1.8 -0.288,0.432 -0.792,0.648 -1.512,0.72 -0.72,0 -1.224,-0.072 -1.584,-0.432 -0.36,-0.36 -0.576,-0.865 -0.648,-1.584 l -0.36,-3.96 1.224,-0.072 0.36,3.6 c 0.072,0.72 0.144,1.151 0.288,1.295 0.144,0.145 0.36,0.217 0.648,0.217 0.288,-0.072 0.504,-0.145 0.576,-0.361 0.072,-0.215 0.144,-0.647 0.072,-1.295 l -0.288,-3.6 z"
             id="path84" /><path
             style="fill:#ffffff;stroke:none"
             d="m 327.311,287.275 0.576,-5.976 1.944,0.216 0.432,3.744 c 0,0.144 0.072,0.288 0.072,0.504 -0.072,0.216 0,0.504 0,0.791 0,-0.215 0.072,-0.431 0.072,-0.647 0.072,-0.216 0.144,-0.432 0.216,-0.648 l 1.152,-3.528 2.016,0.216 -0.648,5.976 -1.152,-0.144 0.432,-4.105 c 0.072,-0.287 0.072,-0.575 0.144,-0.791 0,-0.216 0.072,-0.432 0.144,-0.649 l -1.872,5.401 -1.152,-0.072 -0.72,-5.76 c -0.072,0.36 -0.072,0.936 -0.144,1.512 h 0.072 l -0.359,4.104 z"
             id="path85" /><g
             id="g87"><path
               style="fill:#ffffff;stroke:none"
               d="m 324.215,284.107 v 0.936 l 0.576,0.144 v 1.367 l 1.296,0.361 -0.144,-6.265 -1.584,-0.359 -0.144,0.287 v 2.161 l 0.576,-1.152 v 2.664 z"
               id="path86" /><path
               style="fill:#ffffff;stroke:none"
               d="m 324.215,282.739 v -2.161 l -2.952,5.113 1.224,0.288 0.648,-1.224 1.08,0.288 v -0.936 l -0.648,-0.144 z"
               id="path87" /></g><path
             style="fill:#ffffff;stroke:none"
             d="m 316.079,283.53 2.232,-5.543 1.584,0.648 -0.144,3.312 c 0,0.36 0,0.792 -0.072,1.152 0,0.288 0,0.718 -0.071,1.008 0.071,-0.217 0.143,-0.505 0.215,-0.792 0.144,-0.216 0.216,-0.504 0.36,-0.864 l 1.224,-3.24 1.008,0.432 -2.16,5.544 -1.584,-0.576 0.072,-3.528 c 0.072,-0.217 0.072,-0.576 0.072,-0.864 0.072,-0.361 0.072,-0.792 0.144,-1.224 -0.144,0.36 -0.216,0.648 -0.36,0.936 -0.072,0.288 -0.144,0.576 -0.216,0.719 l -1.224,3.313 z"
             id="path88" /><path
             style="fill:#ffffff;stroke:none"
             d="m 316.295,280.003 -1.584,2.664 c -0.36,-0.144 -0.72,-0.288 -0.936,-0.433 -0.288,-0.143 -0.504,-0.215 -0.72,-0.359 -0.288,-0.144 -0.576,-0.36 -0.72,-0.504 -0.215,-0.144 -0.36,-0.36 -0.432,-0.577 -0.072,-0.287 -0.072,-0.719 0,-1.079 0.145,-0.36 0.432,-0.936 0.864,-1.728 0.288,-0.576 0.576,-0.936 0.793,-1.224 0.215,-0.216 0.431,-0.432 0.647,-0.576 0.288,-0.072 0.576,-0.144 0.865,-0.072 0.287,0 0.647,0.144 1.007,0.36 0.505,0.288 0.864,0.72 0.936,1.079 0.144,0.505 0.072,1.009 -0.216,1.513 l -0.072,0.072 -1.08,-0.648 0.072,-0.072 c 0.144,-0.288 0.288,-0.577 0.216,-0.721 0,-0.215 -0.144,-0.431 -0.36,-0.503 -0.216,-0.144 -0.503,-0.144 -0.72,0.072 -0.216,0.144 -0.576,0.648 -1.08,1.44 -0.504,0.864 -0.72,1.44 -0.792,1.728 0,0.287 0.216,0.504 0.577,0.72 0.071,0.072 0.143,0.072 0.215,0.072 0.072,0.072 0.216,0.072 0.36,0.144 l 0.648,-1.152 -0.576,-0.361 0.432,-0.791 z"
             id="path89" /><path
             style="fill:#ffffff;stroke:none"
             d="m 306.719,276.763 3.96,-4.536 1.224,1.152 -1.224,3.096 c -0.071,0.36 -0.216,0.72 -0.432,1.008 -0.144,0.287 -0.288,0.648 -0.432,1.008 0.144,-0.216 0.288,-0.504 0.504,-0.721 0.217,-0.216 0.36,-0.431 0.576,-0.719 l 2.232,-2.664 0.864,0.792 -3.96,4.536 -1.224,-1.08 1.224,-3.312 c 0.144,-0.216 0.216,-0.506 0.36,-0.793 0.145,-0.359 0.288,-0.791 0.504,-1.079 -0.216,0.216 -0.432,0.504 -0.576,0.72 -0.216,0.216 -0.36,0.503 -0.504,0.575 l -2.231,2.737 z"
             id="path90" /><path
             style="fill:#ffffff;stroke:none"
             d="m 310.247,271.866 -3.024,2.305 c -0.648,0.503 -1.223,0.792 -1.656,0.719 -0.504,0 -0.935,-0.36 -1.368,-0.935 -0.432,-0.504 -0.648,-1.008 -0.576,-1.513 0.144,-0.503 0.432,-0.935 1.009,-1.367 l 3.023,-2.449 0.792,1.009 -2.808,2.159 c -0.504,0.433 -0.792,0.793 -0.864,0.937 -0.072,0.216 0,0.503 0.144,0.72 0.144,0.216 0.432,0.288 0.576,0.288 0.288,-0.072 0.577,-0.216 1.08,-0.648 l 2.88,-2.233 z"
             id="path91" /><path
             style="fill:#ffffff;stroke:none"
             d="m 300.887,268.411 2.016,-0.936 2.664,-3.096 0.576,1.295 -1.8,1.801 2.592,-0.216 0.577,1.224 -4.105,0.071 -1.944,1.009 z"
             id="path92" /><path
             style="fill:#ffffff;stroke:none"
             d="m 298.727,261.715 5.833,-1.512 0.287,1.224 -2.52,0.648 2.88,0.864 0.36,1.295 -3.168,-1.007 -2.664,2.447 -0.36,-1.44 2.448,-2.015 -2.808,0.647 z"
             id="path93" /></g></g></g></g></svg>
